<?xml version="1.0" encoding="UTF-8"?>
<!DOCTYPE svg PUBLIC "-//W3C//DTD SVG 1.1//EN" "http://www.w3.org/Graphics/SVG/1.1/DTD/svg11.dtd">
<!-- Creator: CorelDRAW -->
<svg xmlns="http://www.w3.org/2000/svg" xml:space="preserve" width="500mm" height="500mm" version="1.1" style="shape-rendering:geometricPrecision; text-rendering:geometricPrecision; image-rendering:optimizeQuality; fill-rule:evenodd; clip-rule:evenodd"
viewBox="0 0 50000 50000"
 xmlns:xlink="http://www.w3.org/1999/xlink"
 xmlns:xodm="http://www.corel.com/coreldraw/odm/2003">
 <defs>
  <style type="text/css">
   <![CDATA[
    .str0 {stroke:blue;stroke-width:20;stroke-miterlimit:22.9256}
    .str1 {stroke:red;stroke-width:20;stroke-miterlimit:22.9256}
    .str3 {stroke:blue;stroke-width:105.83;stroke-miterlimit:10}
    .str2 {stroke:blue;stroke-width:211.67;stroke-miterlimit:10}
    .fil0 {fill:blue;fill-rule:nonzero}
    .fil1 {fill:red;fill-rule:nonzero}
   ]]>
  </style>
 </defs>
 <g id="Слой_x0020_1">
  <metadata id="CorelCorpID_0Corel-Layer"/>
  <path class="fil0 str0" d="M37932.35 26323.71c-31.06,48.63 -70.93,93.74 -91.79,146.35 -230.88,583.47 -458.27,1168.23 -687.75,1752.19 -29.9,76.24 -66.99,149.67 -113.82,253.12 -44.5,-64.92 -78.35,-103.66 -100.37,-148.26 -252.89,-514.13 -503.47,-1029.47 -757.29,-1543.09 -21.79,-44.02 -64.44,-77.63 -97.36,-116.16 -18.31,50.02 -52.85,100.05 -53.08,150.07 -3.01,1746.39 -2.78,3492.75 -3.01,5239.14 0,228.2 -17.62,246.4 -238.53,246.31 -922.1,-0.4 -1844.43,-0.81 -2766.54,-1.51 -192.16,-0.09 -206.53,-14.51 -206.76,-211.08 -0.24,-2756.94 -0.24,-5513.87 0,-8270.79 0,-176.07 24.11,-199.99 206.76,-200.5 284.42,-0.79 569.07,-1.21 853.49,0.51 233.66,1.39 241.54,10.71 241.54,240.19 0.46,2256.51 0.69,4513.11 0.69,6769.62 0,433.91 -3.47,344.16 342.61,349.47 240.37,3.61 480.98,-6.31 721.13,3.4 132.82,5.4 166.66,-44.02 165.74,-169.67 -4.64,-662.19 -1.39,-1324.4 -1.63,-1986.7 -0.23,-1687.44 0.24,-3375 -3.71,-5062.46 -0.23,-111.24 33.62,-145.76 142.1,-144.06 304.12,4.7 608.24,3.01 912.37,-1 101.52,-1.3 163.42,38.83 207.69,129.46 238.76,489.03 480.52,976.74 722.76,1464.05 26.19,53.02 63.97,100.35 122.85,191.5 73.48,-187.3 131.66,-329.76 185.67,-473.71 139.31,-371.97 280.48,-743.34 412.84,-1117.82 44.97,-127.44 116.83,-173.08 250.81,-168.47 259.85,9.11 519.93,2.41 779.77,2.11 213.49,-0.21 233.2,19.8 233.2,237.09 -0.23,2030.83 -0.47,4061.72 -0.47,6092.63 0,696.6 0.24,1393.12 -0.23,2089.72 0,214.91 -22.02,236.51 -235.05,236.72 -289.28,0.18 -578.8,0 -868.32,-0.39 -200.51,-0.31 -219.52,-18.53 -219.52,-217.02 0,-1471.65 0,-2943.31 0.47,-4414.97 0,-387.45 1.62,-775.05 0.69,-1162.5 0,-56.12 -9.27,-112.26 -14.37,-168.29 -14.6,-5.1 -28.97,-10.2 -43.58,-15.2z"/>
  <path class="fil0 str0" d="M21107.61 25896.13c-16.11,-2.02 -32.22,-4.1 -48.33,-6.12 -184.29,681.31 -368.45,1362.61 -559.04,2067.13 161.47,0 298.12,-9 432.89,2.5 135.86,11.61 177.58,-34.42 175.87,-170.88 -6.49,-529.53 -1.9,-1059.26 -1.39,-1588.9 0,-101.26 0,-202.51 0,-303.73zm1314.89 2049.11c0,1368.7 0,2737.52 0,4106.22 -0.1,212.21 -8.12,220.21 -226.7,220.42 -299.24,0.27 -598.58,0.69 -897.81,-0.21 -161.18,-0.51 -195.69,-35.33 -195.69,-200.3 -0.19,-1113.6 -1.51,-2227.28 3.4,-3340.88 0.61,-128.67 -33,-174.98 -165.66,-165.08 -156.07,11.7 -313.95,6.39 -470.72,0.2 -96.13,-3.91 -137.97,34.01 -162.47,126.57 -195.68,739.3 -396.17,1477.54 -595.08,2216.08 -108.43,402.38 -218.47,804.44 -323.73,1207.64 -33.22,127.46 -99.63,188.59 -237.81,187.87 -726.02,-3.71 -1452.13,-1.09 -2178.2,-1.99 -175.15,-0.21 -200.09,-27.82 -200.3,-208.9 -0.44,-382.66 -21.49,-766.94 7.42,-1147.41 19.4,-255.31 103.24,-507.02 169.91,-757.34 400.04,-1501.77 803.39,-3002.64 1205.85,-4503.71 118.03,-440.49 236.39,-880.89 355.05,-1321.19 51.22,-189.98 20.51,-229.9 -173.88,-229.6 -529.83,0.7 -1059.63,0.7 -1589.46,0.09 -205.88,-0.18 -218.05,-12.88 -221.78,-214.48 -5.77,-312.66 -5.77,-312.33 303.4,-312.33 740.7,-0.12 1481.42,-0.81 2222.16,-0.72 149.46,0 175.66,31.02 137.04,174.69 -269.22,1003.95 -540.72,2007.39 -809.84,3011.34 -181.59,677.3 -359.36,1355.6 -541.17,2032.71 -161.44,601.27 -325.79,1201.84 -489.77,1802.41 -51.53,188.78 -21.69,232.29 170.21,232.59 515.16,0.9 1030.29,-2.2 1545.33,2.9 111.75,1.2 163.86,-31.62 192.97,-144.67 168.89,-655.18 345.87,-1308.17 519.75,-1961.96 44.22,-166.48 28.81,-185.58 -146.87,-188.99 -196.9,-3.7 -204.38,-9.31 -201.39,-213 6.21,-414.48 -71.84,-405.79 405.07,-399.46 111.15,1.39 167.68,-30.92 197.19,-143.97 220.61,-844.29 446.4,-1687.26 671.6,-2530.34 123.85,-464.2 249.21,-927.92 374.68,-1391.71 75.34,-278.23 76.03,-277.42 365.46,-277.93 264.92,-0.51 529.83,0 794.66,-5.1 134.35,-2.59 190.47,43.51 189.98,189.08 -4.61,1383.53 -2.71,2766.94 -2.8,4150.46z"/>
  <g>
   <path class="fil0" d="M27709.8 21840.78c141.72,-48.09 280.81,-106.28 425.5,-142.72 987.7,-248.65 1982.2,-473.12 2963.72,-743.45 1125.29,-309.92 2240.95,-655.21 3358.26,-992.85 679.8,-205.42 1359.12,-413.58 2031.39,-641.53 1043.69,-353.92 2081.02,-725.7 3121.18,-1090.32 32.7,-11.48 67.75,-22.23 94.56,-42.61 47.99,-36.37 90.09,-79.83 134.79,-120.33 -53.17,-32.01 -102.56,-79.94 -159.96,-93.48 -469.03,-110.22 -940.66,-210.41 -1409.69,-320.58 -914.32,-214.79 -1826.98,-436.62 -2741.53,-650.88 -1170.94,-274.33 -2343.3,-542.55 -3514.24,-816.21 -1074.15,-251.02 -2147.85,-503.7 -3220.73,-759.57 -709.95,-169.33 -1417.36,-349.55 -2127.59,-517.84 -1015.02,-240.14 -2032.26,-470.79 -3047.3,-711.16 -865.46,-204.91 -1728.19,-421.65 -2593.76,-626.33 -1208.53,-285.58 -2417.65,-568.61 -3628.44,-844.45 -542.34,-123.55 -1086.69,-242.69 -1635.11,-334.95 -568.63,-95.5 -1146.41,-161.33 -1721.11,-66.53 -864.11,142.79 -1403.58,675.47 -1645.1,1479.82 -114.11,380.15 -163.56,789.28 -175.53,1187.05 -37.73,1254.97 -43.8,2510.86 -62.33,3766.41 -3.74,252.25 -79.56,484.07 -222.85,690.82 -34.63,49.95 -107.03,74.47 -162.1,110.68 -30.06,-55.68 -84.77,-110.71 -86.28,-167.13 -10.61,-397 -15.78,-794.33 -12.27,-1191.5 7.9,-897.6 3.26,-1795.92 40.12,-2692.5 22.87,-555.95 57.35,-1121.55 183.62,-1660.95 255,-1089 957.27,-1782.55 2081.92,-2025.24 123.98,-26.66 257.82,-11.36 387.1,-11.59 859.37,-1.39 1703.77,119.14 2538.54,310.84 1002.19,230.41 2003.18,465.92 3004.9,698.19 1524.35,353.49 3049.82,702.35 4573.24,1059.56 1301.31,305.28 2599.98,620.99 3900.57,929.29 609.04,144.18 1221.12,276.3 1829.45,423.57 704.24,170.42 1404.69,356.27 2109.18,526.3 714.38,172.44 1432.51,329.3 2147.12,501.06 883.74,212.42 1764.18,437.57 2648.15,649.16 956.65,229.02 1916.83,444.41 2872.78,676.14 195.71,47.42 387.65,125.86 567.6,216.59 278.5,140.45 294.97,362.24 23.52,505.1 -380.36,200.16 -774.83,378.67 -1175.41,536.94 -1441.45,569.7 -2918.42,1039.88 -4403.86,1483.18 -961.36,286.85 -1923.19,575.88 -2895.6,822.12 -986.59,249.84 -1983.75,461.96 -2982.11,662.47 -396.64,79.65 -808.82,85.95 -1214.42,119.86 -62.83,5.29 -128.4,-20.33 -192.67,-31.71 -2.44,-19.52 -4.77,-39.13 -7.22,-58.74z"/>
   <path id="_1" class="fil0" d="M28117.58 21629.7l35.44 136.72 0.01 0 -12.91 3.31 -12.9 3.44 -12.91 3.56 -12.92 3.67 -12.9 3.77 -12.93 3.89 -12.93 3.98 -12.92 4.07 -12.96 4.17 -12.94 4.23 -12.97 4.33 -13.02 4.4 -12.97 4.45 -13.01 4.52 -13.04 4.58 -13.03 4.62 -13.09 4.68 -13.1 4.7 -13.12 4.75 -13.13 4.76 -26.39 9.6 -26.46 9.62 -13.33 4.83 -13.29 4.79 -13.34 4.79 -13.43 4.79 -13.45 4.75 -13.46 4.71 -13.5 4.67 -13.57 4.64 -46.62 -133.42 12.99 -4.44 13.02 -4.51 13.06 -4.57 13.03 -4.59 13.03 -4.65 13.1 -4.71 13.15 -4.75 13.11 -4.73 26.36 -9.6 26.45 -9.62 13.29 -4.82 13.32 -4.81 13.34 -4.8 13.37 -4.78 13.43 -4.76 13.46 -4.72 13.51 -4.7 13.57 -4.65 13.56 -4.58 13.63 -4.55 13.7 -4.49 13.72 -4.41 13.8 -4.35 13.85 -4.26 13.89 -4.17 13.96 -4.09 14 -3.97 14.05 -3.88 14.14 -3.76 14.19 -3.65 0.01 0zm2962.17 -743.04l38.54 135.9 0 0 -92.24 25.26 -92.33 25.02 -92.38 24.76 -92.43 24.52 -92.48 24.31 -92.53 24.1 -92.58 23.9 -92.61 23.72 -92.66 23.56 -92.69 23.4 -92.72 23.26 -92.75 23.12 -92.77 23 -92.77 22.91 -92.81 22.81 -92.82 22.73 -92.82 22.67 -92.83 22.62 -92.83 22.56 -92.82 22.56 -92.83 22.53 -92.8 22.53 -92.8 22.53 -92.78 22.57 -92.76 22.6 -92.73 22.65 -92.71 22.71 -92.67 22.79 -92.65 22.88 -92.59 22.97 -92.56 23.09 -92.52 23.22 -35.44 -136.72 92.72 -23.26 92.74 -23.15 92.77 -23.01 92.79 -22.92 92.81 -22.81 92.81 -22.75 92.83 -22.67 92.82 -22.62 92.84 -22.57 92.82 -22.55 92.82 -22.53 92.81 -22.53 92.8 -22.54 92.77 -22.56 92.77 -22.6 92.74 -22.65 92.7 -22.69 92.67 -22.79 92.65 -22.87 92.61 -22.96 92.55 -23.08 92.52 -23.2 92.45 -23.34 92.42 -23.5 92.35 -23.66 92.3 -23.82 92.23 -24.02 92.16 -24.23 92.09 -24.44 92.02 -24.66 91.93 -24.9 91.86 -25.16 0 0zm3356.54 -992.35l41.98 134.9 0 0 -104.71 31.67 -104.72 31.71 -104.72 31.74 -104.71 31.75 -209.45 63.56 -209.47 63.54 -104.76 31.76 -104.77 31.73 -104.79 31.7 -104.8 31.65 -104.82 31.61 -104.85 31.55 -104.87 31.5 -104.9 31.41 -104.92 31.34 -104.95 31.25 -104.99 31.16 -105.04 31.05 -105.05 30.93 -105.1 30.83 -105.14 30.69 -105.18 30.56 -105.23 30.42 -105.28 30.26 -105.32 30.11 -105.38 29.94 -105.43 29.76 -105.49 29.59 -105.54 29.38 -105.6 29.2 -38.54 -135.9 105.34 -29.12 105.28 -29.32 105.23 -29.51 105.19 -29.7 105.16 -29.88 105.1 -30.05 105.08 -30.2 105.03 -30.36 105 -30.5 104.96 -30.65 104.94 -30.77 104.91 -30.89 104.88 -31.01 104.85 -31.12 104.83 -31.21 104.82 -31.3 104.8 -31.39 104.77 -31.46 104.77 -31.53 104.76 -31.59 104.74 -31.63 104.73 -31.68 104.73 -31.73 104.72 -31.74 209.45 -63.54 209.45 -63.56 104.75 -31.77 104.74 -31.74 104.76 -31.73 104.77 -31.67 0 0zm2029.08 -640.8l46.6 133.44 -0.01 0 -63.17 21.35 -63.2 21.24 -63.25 21.13 -63.27 21.03 -63.32 20.91 -63.33 20.82 -63.38 20.71 -63.4 20.63 -63.43 20.53 -63.47 20.44 -63.48 20.35 -63.5 20.27 -63.53 20.19 -63.55 20.12 -63.59 20.04 -63.59 19.96 -63.6 19.92 -63.65 19.84 -63.64 19.77 -63.65 19.73 -63.68 19.66 -63.7 19.62 -63.7 19.57 -63.71 19.51 -63.72 19.48 -63.73 19.44 -63.72 19.41 -63.74 19.38 -63.74 19.33 -63.75 19.32 -63.75 19.29 -63.75 19.27 -41.98 -134.9 63.71 -19.27 63.71 -19.27 63.69 -19.3 63.68 -19.33 63.68 -19.36 63.66 -19.37 63.65 -19.42 63.64 -19.46 63.61 -19.49 63.6 -19.53 63.58 -19.58 63.56 -19.64 63.55 -19.69 63.52 -19.73 63.49 -19.8 63.48 -19.86 63.45 -19.92 63.41 -20 63.39 -20.06 63.37 -20.15 63.34 -20.21 63.3 -20.29 63.27 -20.38 63.23 -20.47 63.2 -20.55 63.16 -20.65 63.13 -20.74 63.08 -20.85 63.05 -20.95 63.01 -21.05 62.96 -21.16 62.93 -21.27 -0.01 0zm3120.45 -1090.06l48.06 132.92 -0.03 0.01 -97.49 34.2 -97.46 34.23 -97.46 34.27 -97.45 34.29 -97.44 34.32 -97.43 34.34 -97.44 34.36 -97.43 34.37 -194.87 68.75 -194.88 68.73 -97.45 34.35 -97.46 34.34 -97.47 34.32 -97.48 34.28 -97.49 34.26 -97.51 34.23 -97.53 34.18 -97.54 34.14 -97.57 34.1 -97.58 34.04 -97.61 33.98 -97.64 33.92 -97.67 33.86 -97.68 33.77 -97.73 33.71 -97.76 33.62 -97.78 33.54 -97.82 33.46 -97.86 33.35 -97.9 33.26 -46.6 -133.44 97.76 -33.2 97.72 -33.31 97.7 -33.4 97.66 -33.5 97.64 -33.58 97.61 -33.67 97.58 -33.75 97.57 -33.82 97.54 -33.88 97.53 -33.96 97.5 -34 97.49 -34.08 97.48 -34.12 97.47 -34.16 97.45 -34.21 97.45 -34.24 97.44 -34.28 97.45 -34.3 97.42 -34.32 97.43 -34.35 194.86 -68.73 194.87 -68.75 97.45 -34.37 97.44 -34.36 97.47 -34.36 97.46 -34.32 97.49 -34.31 97.5 -34.29 97.52 -34.25 97.53 -34.2 -0.03 0.01zm74.94 -32.08l87.3 111.86 0.08 -0.06 -3.86 2.85 -3.81 2.71 -3.95 2.67 -3.88 2.5 -3.85 2.38 -3.97 2.36 -3.89 2.2 -3.79 2.08 -3.87 2.03 -3.87 1.96 -3.76 1.83 -3.79 1.79 -3.72 1.7 -3.74 1.67 -3.83 1.63 -3.65 1.52 -3.64 1.48 -3.51 1.39 -3.56 1.39 -3.68 1.4 -3.42 1.27 -3.43 1.26 -3.53 1.27 -3.3 1.17 -3.25 1.14 -3.31 1.16 -3.17 1.1 -3.18 1.11 -6.12 2.11 -5.93 2.07 -48.06 -132.92 6.39 -2.23 6.26 -2.17 3.04 -1.05 3.05 -1.06 2.93 -1.02 2.97 -1.06 2.92 -1.03 2.69 -0.97 2.77 -1.02 2.78 -1.03 2.5 -0.94 2.58 -1.01 2.61 -1.03 2.46 -1 2.41 -1 2.19 -0.95 2.24 -0.99 2.2 -1 2.09 -0.99 2.06 -1.01 1.91 -0.96 1.83 -0.97 1.85 -1 1.69 -0.96 1.53 -0.9 1.57 -0.98 1.46 -0.94 1.31 -0.89 1.35 -0.95 1.22 -0.91 0.08 -0.06zm-0.08 0.06l0.08 -0.06 -0.35 0.27 0.27 -0.21zm141.19 -4.25l74.66 -120.42 11.13 112.15 -3.96 3.61 -4.04 3.7 -3.99 3.67 -4.02 3.73 -4.01 3.73 -4 3.75 -4.09 3.84 -4.06 3.81 -8.23 7.76 -8.28 7.79 -4.21 3.95 -4.19 3.92 -4.23 3.95 -4.27 3.97 -4.31 3.99 -4.36 3.99 -4.38 3.99 -4.39 3.96 -4.47 4.01 -4.53 4.01 -4.48 3.92 -4.56 3.97 -4.66 3.99 -4.68 3.96 -4.71 3.92 -4.81 3.95 -4.85 3.91 -4.87 3.87 -4.95 3.86 -5.01 3.84 -87.3 -111.86 3.95 -3.02 3.95 -3.08 3.97 -3.15 3.93 -3.17 3.91 -3.21 3.95 -3.3 3.94 -3.32 3.9 -3.35 3.96 -3.43 4 -3.52 3.93 -3.47 3.93 -3.53 3.99 -3.6 3.98 -3.63 3.96 -3.63 3.99 -3.69 4.01 -3.71 4.03 -3.77 4.07 -3.8 4.03 -3.79 8.2 -7.71 8.23 -7.76 4.18 -3.93 4.15 -3.9 4.26 -3.99 4.27 -3.97 4.28 -3.97 4.33 -3.99 4.3 -3.94 4.4 -4.01 11.13 112.15zm74.66 -120.42l81.05 48.8 -69.92 63.35 -11.13 -112.15zm-213.9 35.36l33.22 -137.26 0.06 0.01 7.91 2.02 7.69 2.26 7.55 2.49 7.34 2.7 7.12 2.85 7 3.04 6.76 3.15 6.56 3.25 6.38 3.34 6.31 3.45 6.16 3.55 5.97 3.57 5.82 3.6 5.72 3.64 5.56 3.63 5.47 3.66 5.44 3.7 5.27 3.66 5.15 3.61 5.12 3.62 9.79 6.96 9.66 6.86 4.64 3.28 4.55 3.18 4.44 3.06 4.44 3.01 4.32 2.87 4.22 2.74 4.19 2.65 4.07 2.49 -74.66 120.42 -5.87 -3.61 -5.73 -3.61 -5.64 -3.66 -5.52 -3.67 -5.38 -3.65 -5.36 -3.68 -5.21 -3.66 -5.12 -3.6 -9.84 -7 -9.69 -6.9 -4.64 -3.28 -4.61 -3.23 -4.51 -3.12 -4.36 -2.98 -4.37 -2.9 -4.28 -2.81 -4.18 -2.66 -4.1 -2.54 -4.01 -2.39 -3.84 -2.21 -3.77 -2.07 -3.74 -1.96 -3.62 -1.79 -3.48 -1.63 -3.32 -1.44 -3.26 -1.31 -3.12 -1.14 -2.99 -0.99 -2.93 -0.86 -2.81 -0.72 0.06 0.01zm-1409.68 -320.58l33.2 -137.26 0 0 43.89 10.28 43.91 10.22 43.93 10.18 43.94 10.13 43.96 10.09 43.98 10.04 44 10.02 44 9.98 44.03 9.95 44.04 9.93 44.04 9.91 44.05 9.9 44.07 9.87 44.08 9.87 44.08 9.87 44.09 9.85 44.1 9.87 44.1 9.87 44.11 9.87 44.11 9.9 44.1 9.9 44.12 9.93 44.1 9.95 44.12 9.97 44.11 10.01 44.1 10.04 44.11 10.08 44.1 10.12 44.09 10.17 44.09 10.22 44.07 10.27 44.08 10.32 -33.22 137.26 -43.88 -10.28 -43.91 -10.23 -43.93 -10.18 -43.95 -10.13 -43.96 -10.1 -43.97 -10.04 -44 -10.02 -44.01 -9.99 -44.02 -9.95 -44.04 -9.93 -44.04 -9.91 -44.06 -9.9 -44.07 -9.88 -44.07 -9.87 -44.08 -9.87 -44.08 -9.85 -44.11 -9.87 -44.1 -9.87 -44.1 -9.87 -44.11 -9.89 -44.11 -9.9 -44.12 -9.93 -44.1 -9.95 -44.11 -9.97 -44.12 -10 -44.1 -10.04 -44.1 -10.08 -44.1 -10.11 -44.1 -10.17 -44.09 -10.22 -44.07 -10.26 -44.07 -10.32 0 0zm-2741.49 -650.87l33.12 -137.28 0 0 85.77 20.12 85.76 20.15 85.74 20.2 85.73 20.23 85.72 20.26 85.72 20.3 85.7 20.33 85.69 20.35 85.69 20.36 85.69 20.4 85.66 20.41 85.67 20.42 85.66 20.44 85.66 20.44 85.65 20.45 85.64 20.45 171.29 40.91 171.28 40.89 85.64 20.44 85.64 20.41 85.65 20.41 85.64 20.39 85.64 20.36 85.66 20.34 85.65 20.32 85.65 20.29 85.67 20.26 85.65 20.22 85.68 20.19 85.68 20.15 -33.2 137.26 -85.74 -20.17 -85.74 -20.19 -85.73 -20.24 -85.71 -20.28 -85.71 -20.29 -85.69 -20.34 -85.68 -20.34 -85.68 -20.38 -85.68 -20.39 -85.67 -20.41 -85.66 -20.43 -85.66 -20.44 -171.3 -40.89 -171.29 -40.91 -85.64 -20.45 -85.65 -20.45 -85.64 -20.44 -85.64 -20.42 -85.65 -20.42 -85.64 -20.41 -85.65 -20.38 -85.65 -20.36 -85.65 -20.35 -85.66 -20.31 -85.66 -20.28 -85.68 -20.26 -85.67 -20.21 -85.68 -20.18 -85.7 -20.15 -85.69 -20.1 0 0zm-3514.2 -816.2l33.04 -137.3 0 0 109.76 25.63 109.77 25.61 109.78 25.58 109.78 25.55 109.8 25.53 109.79 25.52 109.81 25.48 109.82 25.48 109.81 25.46 109.83 25.44 109.83 25.44 109.83 25.42 219.68 50.84 219.68 50.83 109.84 25.42 109.84 25.42 109.85 25.44 109.84 25.44 109.85 25.44 109.84 25.46 109.85 25.48 109.83 25.5 109.84 25.51 109.84 25.53 109.82 25.56 109.83 25.58 109.82 25.61 109.81 25.64 109.81 25.67 109.8 25.71 -33.12 137.28 -109.76 -25.69 -109.77 -25.67 -109.77 -25.62 -109.78 -25.61 -109.79 -25.58 -109.8 -25.54 -109.8 -25.53 -109.82 -25.51 -109.81 -25.48 -109.83 -25.48 -109.82 -25.46 -109.83 -25.44 -109.84 -25.44 -109.83 -25.42 -109.84 -25.42 -109.84 -25.42 -219.68 -50.83 -219.68 -50.84 -109.85 -25.44 -109.83 -25.44 -109.85 -25.44 -109.83 -25.46 -109.84 -25.48 -109.83 -25.5 -109.83 -25.52 -109.82 -25.53 -109.82 -25.57 -109.8 -25.58 -109.81 -25.61 -109.8 -25.65 0 0zm-3221.05 -759.65l33.68 -137.14 0 -0.01 100.57 23.98 100.57 23.96 100.59 23.94 100.59 23.91 100.59 23.91 100.6 23.89 100.59 23.86 100.61 23.86 100.61 23.84 100.61 23.82 100.62 23.8 100.62 23.79 100.63 23.77 100.63 23.77 100.63 23.73 100.65 23.73 100.64 23.72 100.64 23.7 100.66 23.68 100.65 23.68 100.66 23.67 100.66 23.65 100.66 23.63 100.67 23.62 100.67 23.61 100.68 23.61 100.68 23.59 100.68 23.58 100.68 23.56 100.68 23.55 100.7 23.55 100.69 23.54 -33.04 137.3 -100.71 -23.54 -100.7 -23.55 -100.7 -23.55 -100.7 -23.58 -100.7 -23.58 -100.7 -23.59 -100.68 -23.61 -100.69 -23.61 -100.69 -23.64 -100.68 -23.63 -100.68 -23.65 -100.68 -23.67 -100.67 -23.68 -100.66 -23.7 -100.68 -23.7 -100.66 -23.72 -100.65 -23.73 -100.67 -23.75 -100.65 -23.77 -100.63 -23.77 -100.66 -23.79 -100.64 -23.82 -100.63 -23.82 -100.63 -23.84 -100.63 -23.86 -100.63 -23.88 -100.62 -23.89 -100.61 -23.91 -100.61 -23.93 -100.61 -23.94 -100.61 -23.96 -100.59 -23.98 0 -0.01zm-2127.46 -517.8l33.42 -137.22 0.03 0.01 66.65 15.83 66.63 15.89 66.6 15.96 66.59 16 66.57 16.07 66.56 16.11 66.55 16.15 66.53 16.2 66.51 16.23 66.51 16.26 66.49 16.28 66.48 16.32 66.47 16.32 66.47 16.35 66.45 16.35 66.45 16.36 66.46 16.36 66.44 16.36 66.43 16.36 66.44 16.33 66.44 16.33 66.43 16.32 66.43 16.28 66.44 16.26 66.43 16.22 66.46 16.19 66.45 16.16 66.45 16.11 66.45 16.06 66.46 16 66.49 15.95 66.48 15.9 -33.68 137.14 -66.62 -15.92 -66.59 -15.97 -66.58 -16.04 -66.57 -16.08 -66.55 -16.13 -66.53 -16.18 -66.52 -16.21 -66.51 -16.24 -66.5 -16.28 -66.49 -16.3 -66.47 -16.32 -66.46 -16.33 -66.46 -16.35 -66.47 -16.36 -66.44 -16.36 -66.44 -16.36 -66.45 -16.36 -66.43 -16.35 -66.43 -16.33 -66.45 -16.32 -66.44 -16.3 -66.43 -16.28 -66.43 -16.24 -66.45 -16.21 -66.45 -16.18 -66.45 -16.13 -66.46 -16.09 -66.47 -16.03 -66.47 -15.98 -66.48 -15.92 -66.49 -15.87 -66.51 -15.79 0.03 0.01zm-3047.32 -711.17l33.46 -137.2 0 0 95.13 22.5 95.13 22.44 95.15 22.39 95.17 22.35 95.18 22.31 95.2 22.27 95.2 22.23 95.2 22.21 95.23 22.16 95.23 22.16 95.23 22.13 95.25 22.1 95.24 22.1 95.25 22.08 95.26 22.08 95.27 22.08 95.26 22.07 95.26 22.08 95.27 22.08 95.27 22.09 95.26 22.12 95.26 22.12 95.27 22.15 95.26 22.17 95.25 22.2 95.26 22.24 95.23 22.26 95.24 22.3 95.23 22.36 95.22 22.39 95.22 22.44 95.2 22.49 -33.42 137.22 -95.12 -22.49 -95.14 -22.42 -95.16 -22.37 -95.17 -22.34 -95.18 -22.28 -95.19 -22.26 -95.2 -22.22 -95.21 -22.2 -95.22 -22.15 -95.23 -22.15 -95.24 -22.12 -95.24 -22.1 -95.25 -22.09 -95.25 -22.08 -95.26 -22.08 -95.26 -22.07 -95.27 -22.08 -95.26 -22.08 -95.27 -22.08 -95.26 -22.1 -95.27 -22.12 -95.27 -22.13 -95.27 -22.16 -95.25 -22.18 -95.26 -22.21 -95.26 -22.25 -95.24 -22.29 -95.24 -22.31 -95.23 -22.37 -95.23 -22.41 -95.21 -22.46 -95.21 -22.52 0 0zm-2593.73 -626.32l33.4 -137.22 0.01 0 81.19 19.24 81.18 19.3 81.16 19.36 81.15 19.42 81.13 19.49 81.1 19.51 81.1 19.56 81.09 19.61 81.06 19.64 81.07 19.66 81.05 19.7 81.04 19.71 81.03 19.74 81.03 19.75 81.02 19.75 81.01 19.76 81.01 19.76 81 19.75 81.02 19.75 81 19.73 81.01 19.71 81 19.7 81 19.66 81.01 19.63 81.03 19.61 81.01 19.56 81.02 19.51 81.04 19.47 81.04 19.42 81.05 19.35 81.05 19.3 81.08 19.23 -33.46 137.2 -81.18 -19.25 -81.17 -19.32 -81.15 -19.39 -81.14 -19.44 -81.12 -19.49 -81.1 -19.53 -81.09 -19.58 -81.07 -19.61 -81.07 -19.65 -81.06 -19.68 -81.04 -19.7 -81.03 -19.71 -81.04 -19.75 -81.02 -19.75 -81.02 -19.75 -81.01 -19.76 -81.01 -19.76 -81 -19.75 -81.01 -19.75 -81.01 -19.72 -81 -19.71 -81.01 -19.68 -81.01 -19.66 -81.02 -19.62 -81.01 -19.59 -81.02 -19.54 -81.04 -19.51 -81.03 -19.45 -81.05 -19.4 -81.06 -19.34 -81.06 -19.28 -81.09 -19.2 0.01 0zm-3627.87 -844.32l32.26 -137.48 0 0 113.53 25.88 113.52 25.93 113.51 25.98 113.51 26 113.49 26.05 113.48 26.08 113.48 26.12 113.47 26.16 113.45 26.19 113.45 26.22 113.45 26.27 113.42 26.29 113.43 26.33 113.41 26.35 113.41 26.38 113.41 26.42 113.39 26.44 113.39 26.48 113.38 26.49 113.38 26.53 113.36 26.55 113.36 26.57 113.36 26.6 113.34 26.62 113.36 26.63 113.33 26.67 113.33 26.68 113.33 26.7 113.32 26.71 113.32 26.74 113.33 26.75 113.31 26.77 -33.4 137.22 -113.29 -26.77 -113.29 -26.75 -113.3 -26.72 -113.3 -26.71 -113.31 -26.7 -113.31 -26.68 -113.31 -26.65 -113.32 -26.63 -113.32 -26.62 -113.32 -26.58 -113.34 -26.57 -113.34 -26.55 -113.34 -26.51 -113.34 -26.49 -113.37 -26.46 -113.35 -26.44 -113.37 -26.4 -113.37 -26.38 -113.37 -26.35 -113.39 -26.31 -113.4 -26.29 -113.39 -26.25 -113.41 -26.22 -113.41 -26.17 -113.43 -26.16 -113.42 -26.1 -113.44 -26.08 -113.45 -26.03 -113.45 -26 -113.47 -25.96 -113.46 -25.91 -113.49 -25.88 0 0zm-1631.01 -334.14l24.06 -139.1 0.02 0 51.61 8.77 51.59 8.91 51.56 9.07 51.53 9.21 51.51 9.35 51.47 9.48 51.46 9.63 51.41 9.74 51.4 9.87 51.37 10 51.35 10.11 51.3 10.22 51.3 10.32 51.28 10.43 51.23 10.53 51.22 10.62 51.2 10.72 51.17 10.79 51.16 10.89 51.13 10.96 51.11 11.04 51.07 11.1 51.07 11.17 51.05 11.24 51.01 11.29 51.01 11.34 50.98 11.39 50.97 11.45 50.93 11.48 50.94 11.51 50.91 11.55 50.89 11.58 -32.26 137.48 -50.81 -11.56 -50.81 -11.53 -50.82 -11.49 -50.85 -11.46 -50.83 -11.41 -50.84 -11.35 -50.85 -11.32 -50.87 -11.25 -50.87 -11.2 -50.89 -11.13 -50.89 -11.06 -50.91 -11 -50.91 -10.92 -50.92 -10.83 -50.93 -10.75 -50.96 -10.66 -50.96 -10.56 -50.97 -10.49 -50.98 -10.37 -51 -10.26 -51.02 -10.16 -51.03 -10.05 -51.03 -9.92 -51.06 -9.81 -51.07 -9.68 -51.08 -9.55 -51.11 -9.42 -51.11 -9.29 -51.13 -9.13 -51.16 -8.99 -51.17 -8.85 -51.19 -8.69 0.02 0zm-1697.24 -66.5l-23.68 -139.16 0.02 -0.01 55.1 -8.61 55.08 -7.66 55.08 -6.76 55.07 -5.86 55.04 -4.99 55.02 -4.17 55 -3.33 54.97 -2.56 54.95 -1.78 54.9 -1.05 54.87 -0.33 54.84 0.35 54.8 1.02 54.75 1.66 54.69 2.26 54.66 2.87 54.61 3.42 54.54 3.96 54.5 4.48 54.44 4.96 54.38 5.42 54.32 5.88 54.25 6.28 54.19 6.66 54.12 7.04 54.05 7.37 53.98 7.7 53.91 7.98 53.83 8.25 53.76 8.49 53.66 8.72 53.6 8.9 -24.06 139.1 -53.08 -8.82 -53.1 -8.62 -53.12 -8.39 -53.13 -8.15 -53.15 -7.86 -53.16 -7.58 -53.17 -7.25 -53.18 -6.92 -53.17 -6.54 -53.19 -6.16 -53.18 -5.74 -53.16 -5.3 -53.18 -4.86 -53.16 -4.36 -53.16 -3.86 -53.13 -3.34 -53.12 -2.77 -53.11 -2.2 -53.09 -1.62 -53.06 -0.98 -53.04 -0.35 -53.01 0.33 -53 1.01 -52.95 1.72 -52.93 2.46 -52.9 3.21 -52.86 3.99 -52.84 4.79 -52.77 5.62 -52.76 6.48 -52.72 7.34 -52.68 8.23 0.02 -0.01zm-1588.28 1430.25l-137.32 -40.02 0.01 -0.01 24.09 -76.44 25.91 -74.86 27.75 -73.27 29.59 -71.65 31.43 -70 33.3 -68.31 35.15 -66.63 37.04 -64.91 38.92 -63.14 40.81 -61.35 42.71 -59.55 44.62 -57.69 46.51 -55.82 48.43 -53.92 50.33 -51.97 52.25 -50.01 54.15 -48 56.07 -45.99 57.98 -43.91 59.87 -41.83 61.76 -39.71 63.67 -37.58 65.55 -35.4 67.43 -33.2 69.31 -31 71.17 -28.76 73.04 -26.5 74.91 -24.22 76.76 -21.93 78.62 -19.62 80.46 -17.27 82.32 -14.94 23.68 139.16 -77.8 14.12 -75.86 16.29 -73.92 18.44 -72.02 20.57 -70.09 22.68 -68.2 24.74 -66.33 26.8 -64.45 28.82 -62.61 30.84 -60.77 32.82 -58.95 34.78 -57.14 36.75 -55.37 38.67 -53.58 40.59 -51.81 42.49 -50.07 44.38 -48.33 46.27 -46.61 48.13 -44.89 49.96 -43.17 51.82 -41.48 53.65 -39.77 55.45 -38.09 57.27 -36.4 59.04 -34.7 60.81 -33.03 62.59 -31.34 64.33 -29.67 66.04 -27.97 67.77 -26.31 69.45 -24.61 71.12 -22.95 72.78 0.01 -0.01zm-172.62 1169.13l-143.14 -4.18 0 0 1.25 -37.73 1.48 -37.81 1.7 -37.86 1.95 -37.91 2.18 -37.96 2.44 -37.99 2.68 -38.03 2.95 -38.06 3.21 -38.06 3.47 -38.08 3.75 -38.08 4.04 -38.08 4.32 -38.06 4.6 -38.04 4.9 -38.02 5.19 -37.98 5.52 -37.95 5.8 -37.88 6.14 -37.85 6.45 -37.77 6.78 -37.72 7.11 -37.62 7.45 -37.54 7.79 -37.44 8.13 -37.36 8.49 -37.26 8.85 -37.14 9.22 -37 9.58 -36.88 9.96 -36.75 10.34 -36.61 10.72 -36.45 137.32 40.02 -10.3 34.99 -9.92 35.17 -9.58 35.33 -9.22 35.5 -8.88 35.64 -8.53 35.78 -8.19 35.92 -7.85 36.06 -7.53 36.18 -7.19 36.3 -6.89 36.4 -6.56 36.5 -6.25 36.59 -5.94 36.67 -5.64 36.76 -5.34 36.83 -5.05 36.88 -4.76 36.94 -4.48 37 -4.2 37.02 -3.92 37.06 -3.65 37.08 -3.39 37.1 -3.13 37.12 -2.87 37.1 -2.62 37.11 -2.38 37.11 -2.14 37.06 -1.89 37.05 -1.68 37 -1.44 36.97 -1.21 36.91 0 0zm-62.31 3765.35l-143.18 -2.06 0 0 1.7 -117.67 1.64 -117.67 1.58 -117.68 1.53 -117.68 1.49 -117.7 1.46 -117.69 1.43 -117.71 1.42 -117.72 1.41 -117.7 1.41 -117.72 1.41 -117.73 1.44 -117.72 1.45 -117.74 1.49 -117.73 1.53 -117.74 1.57 -117.74 1.64 -117.74 1.69 -117.75 1.77 -117.75 1.85 -117.76 1.94 -117.76 2.04 -117.74 2.15 -117.77 2.25 -117.75 2.37 -117.77 2.51 -117.76 2.63 -117.76 2.79 -117.77 2.95 -117.76 3.1 -117.76 3.26 -117.76 3.45 -117.77 143.14 4.18 -3.45 117.55 -3.26 117.56 -3.1 117.56 -2.93 117.58 -2.79 117.59 -2.63 117.6 -2.51 117.6 -2.37 117.61 -2.25 117.63 -2.13 117.63 -2.04 117.64 -1.94 117.64 -1.85 117.66 -1.77 117.65 -1.69 117.67 -1.64 117.68 -1.57 117.68 -1.53 117.68 -1.49 117.69 -1.45 117.7 -1.44 117.7 -1.41 117.71 -1.41 117.72 -1.41 117.72 -1.42 117.72 -1.43 117.73 -1.46 117.73 -1.49 117.74 -1.53 117.74 -1.58 117.74 -1.64 117.75 -1.7 117.75 0 0zm-235.32 729.59l-118.24 -79.6 0 0.01 12.55 -18.45 12.16 -18.56 11.77 -18.69 11.4 -18.83 11.01 -18.93 10.62 -19.06 10.24 -19.2 9.86 -19.32 9.49 -19.44 9.08 -19.54 8.7 -19.68 8.33 -19.83 7.95 -19.94 7.55 -20.05 7.17 -20.18 6.79 -20.3 6.39 -20.43 6.02 -20.55 5.63 -20.69 5.25 -20.81 4.85 -20.93 4.46 -21.04 4.07 -21.19 3.7 -21.33 3.3 -21.42 2.89 -21.57 2.52 -21.71 2.12 -21.8 1.72 -21.97 1.33 -22.08 0.93 -22.19 0.53 -22.35 143.18 2.06 -0.59 24.83 -1.03 24.75 -1.49 24.6 -1.92 24.49 -2.36 24.4 -2.82 24.25 -3.25 24.13 -3.7 24.02 -4.12 23.87 -4.57 23.77 -5.02 23.64 -5.45 23.51 -5.89 23.35 -6.31 23.23 -6.76 23.09 -7.19 22.95 -7.63 22.82 -8.05 22.66 -8.49 22.53 -8.91 22.36 -9.33 22.21 -9.76 22.08 -10.2 21.94 -10.61 21.76 -11.02 21.6 -11.46 21.44 -11.86 21.3 -12.29 21.13 -12.68 20.95 -13.11 20.81 -13.52 20.64 -13.93 20.47 0 0.01zm-284.43 104.02l126.42 -66.28 -102.95 -25.55 6.25 -4.03 6.21 -3.86 6.21 -3.75 6.17 -3.61 6.07 -3.48 6.11 -3.42 5.95 -3.28 6.01 -3.28 11.44 -6.16 11.24 -6.06 5.33 -2.9 5.24 -2.88 5.07 -2.84 4.98 -2.84 4.81 -2.8 4.55 -2.73 4.39 -2.72 4.23 -2.71 4 -2.67 3.76 -2.62 3.52 -2.57 3.32 -2.55 3.06 -2.48 2.78 -2.4 2.59 -2.39 2.35 -2.32 2.11 -2.23 1.83 -2.09 1.65 -2.08 1.49 -2.04 118.24 79.6 -5.23 7.18 -5.47 6.86 -5.71 6.57 -5.81 6.17 -5.93 5.84 -6.03 5.55 -6.16 5.32 -6.18 5.02 -6.22 4.79 -6.26 4.57 -6.26 4.36 -6.26 4.17 -6.21 3.99 -6.25 3.88 -6.23 3.73 -6.13 3.58 -6.06 3.46 -6.07 3.4 -6 3.3 -5.95 3.24 -11.44 6.16 -11.22 6.04 -5.27 2.88 -5.27 2.9 -5.03 2.82 -4.95 2.84 -4.75 2.77 -4.55 2.75 -4.41 2.74 -4.17 2.69 -102.95 -25.55zm102.95 25.55l-65.8 43.26 -37.15 -68.81 102.95 25.55zm-197.59 -223.96l143.14 -3.72 0 0 0.08 1.31 0.18 1.57 0.28 1.72 0.44 1.97 0.61 2.28 0.81 2.59 0.98 2.78 1.18 2.94 1.41 3.25 1.66 3.52 1.81 3.61 2.06 3.84 2.25 4.03 2.43 4.14 2.62 4.32 2.77 4.43 2.95 4.58 3.09 4.73 3.21 4.81 3.29 4.87 7.03 10.32 7.15 10.51 3.78 5.62 3.71 5.6 3.74 5.72 3.75 5.88 3.73 6 3.69 6.15 3.64 6.28 3.59 6.48 -126.42 66.28 -2.19 -3.96 -2.4 -4.14 -2.57 -4.27 -2.75 -4.42 -2.89 -4.54 -3.06 -4.68 -3.19 -4.82 -3.22 -4.78 -7.01 -10.29 -7.13 -10.48 -3.73 -5.53 -3.73 -5.61 -3.73 -5.67 -3.75 -5.84 -3.75 -5.99 -3.7 -6.1 -3.67 -6.28 -3.59 -6.41 -3.52 -6.6 -3.43 -6.83 -3.26 -6.94 -3.15 -7.21 -2.98 -7.54 -2.74 -7.72 -2.47 -7.91 -2.19 -8.22 -1.86 -8.57 -1.46 -8.82 -1 -8.97 -0.52 -9.27 0 0zm-12.29 -1193.97l143.18 1.22 0 0 -0.3 37.15 -0.25 37.14 -0.2 37.15 -0.16 37.14 -0.1 37.14 -0.06 37.16 -0.01 37.15 0.03 37.15 0.09 37.15 0.12 37.16 0.18 37.16 0.21 37.16 0.25 37.15 0.31 37.16 0.34 37.17 0.39 37.14 0.43 37.17 0.47 37.17 0.51 37.16 0.55 37.16 0.59 37.16 0.63 37.17 0.65 37.16 0.7 37.17 0.74 37.15 0.78 37.17 0.81 37.16 0.84 37.16 0.88 37.16 0.91 37.16 0.94 37.17 0.98 37.15 -143.14 3.72 -0.98 -37.29 -0.94 -37.27 -0.93 -37.28 -0.88 -37.3 -0.84 -37.3 -0.81 -37.28 -0.78 -37.29 -0.74 -37.31 -0.7 -37.31 -0.67 -37.3 -0.63 -37.29 -0.59 -37.32 -0.55 -37.3 -0.51 -37.32 -0.47 -37.31 -0.43 -37.31 -0.39 -37.32 -0.34 -37.31 -0.31 -37.32 -0.27 -37.33 -0.21 -37.32 -0.18 -37.32 -0.12 -37.32 -0.09 -37.33 -0.03 -37.33 0.01 -37.33 0.06 -37.32 0.1 -37.32 0.16 -37.34 0.2 -37.33 0.27 -37.32 0.3 -37.33 0 0zm40.17 -2694.75l143.08 5.72 0 0 -3.33 83.86 -3.1 83.88 -2.87 83.9 -2.66 83.91 -2.45 83.93 -2.27 83.95 -2.08 83.96 -1.91 83.98 -1.74 84 -1.59 84.01 -1.45 84.02 -1.31 84.03 -1.19 84.04 -1.07 84.06 -0.97 84.08 -0.88 84.09 -0.79 84.09 -0.72 84.11 -0.65 84.11 -0.59 84.13 -0.54 84.13 -0.52 84.15 -0.49 84.15 -0.47 84.16 -0.47 84.17 -0.47 84.18 -0.49 84.18 -0.51 84.18 -0.55 84.2 -0.59 84.2 -0.64 84.21 -0.71 84.2 -143.18 -1.22 0.71 -84.1 0.64 -84.11 0.59 -84.12 0.53 -84.12 0.51 -84.14 0.49 -84.16 0.47 -84.16 0.47 -84.17 0.47 -84.18 0.49 -84.19 0.52 -84.19 0.56 -84.19 0.59 -84.21 0.65 -84.23 0.72 -84.21 0.79 -84.23 0.88 -84.23 0.97 -84.24 1.07 -84.24 1.19 -84.24 1.31 -84.25 1.45 -84.26 1.61 -84.25 1.74 -84.26 1.91 -84.26 2.1 -84.26 2.27 -84.25 2.47 -84.27 2.66 -84.25 2.89 -84.26 3.1 -84.26 3.35 -84.26 0 0zm185.4 -1673.95l139.52 31.72 0 0 -11.4 49.92 -10.9 50.1 -10.4 50.26 -9.92 50.39 -9.44 50.56 -8.99 50.7 -8.56 50.83 -8.12 50.95 -7.71 51.08 -7.32 51.19 -6.93 51.31 -6.56 51.4 -6.21 51.5 -5.86 51.58 -5.54 51.68 -5.23 51.74 -4.92 51.81 -4.63 51.88 -4.37 51.93 -4.13 51.99 -3.86 52.01 -3.65 52.06 -3.44 52.09 -3.24 52.11 -3.06 52.12 -2.87 52.13 -2.73 52.14 -2.6 52.14 -2.47 52.12 -2.35 52.1 -2.26 52.08 -2.17 52.05 -143.08 -5.72 2.19 -52.25 2.26 -52.3 2.37 -52.4 2.49 -52.42 2.6 -52.48 2.75 -52.52 2.91 -52.57 3.08 -52.6 3.28 -52.63 3.46 -52.63 3.69 -52.64 3.92 -52.65 4.17 -52.65 4.43 -52.63 4.71 -52.62 5 -52.61 5.31 -52.58 5.62 -52.54 5.98 -52.5 6.31 -52.44 6.7 -52.4 7.07 -52.33 7.46 -52.27 7.89 -52.2 8.3 -52.11 8.76 -52.03 9.21 -51.92 9.68 -51.84 10.18 -51.73 10.68 -51.6 11.2 -51.5 11.74 -51.36 0 0zm2136.42 -2078.31l30.52 137.86 0.06 -0.01 -102.14 23.6 -99.61 26.14 -97.07 28.69 -94.56 31.21 -92.02 33.72 -89.49 36.22 -86.99 38.7 -84.46 41.16 -81.95 43.63 -79.44 46.06 -76.93 48.51 -74.45 50.93 -71.94 53.35 -69.46 55.77 -66.99 58.17 -64.51 60.59 -62.03 62.99 -59.58 65.39 -57.1 67.79 -54.64 70.2 -52.17 72.58 -49.71 75.01 -47.24 77.39 -44.77 79.8 -42.28 82.2 -39.79 84.6 -37.31 87 -34.81 89.38 -32.3 91.78 -29.77 94.16 -27.25 96.55 -24.72 98.91 -139.52 -31.72 25.72 -102.95 28.41 -100.67 31.11 -98.38 33.8 -96.06 36.51 -93.74 39.19 -91.4 41.89 -89.04 44.58 -86.66 47.27 -84.26 49.96 -81.85 52.63 -79.41 55.31 -76.96 57.98 -74.48 60.64 -71.99 63.28 -69.47 65.93 -66.93 68.55 -64.37 71.15 -61.81 73.76 -59.21 76.34 -56.61 78.91 -53.99 81.45 -51.35 84 -48.72 86.53 -46.05 89.02 -43.4 91.53 -40.72 94.01 -38.04 96.48 -35.36 98.94 -32.65 101.39 -29.97 103.83 -27.26 106.26 -24.54 0.06 -0.01zm402.24 -13.21l0.24 141.1 0.01 0 -12.62 -0.02 -12.64 -0.1 -12.56 -0.19 -12.5 -0.23 -12.47 -0.29 -12.44 -0.32 -12.35 -0.36 -12.3 -0.36 -12.28 -0.37 -12.2 -0.37 -12.14 -0.34 -12.07 -0.33 -12.01 -0.28 -11.95 -0.25 -11.87 -0.18 -11.78 -0.13 -11.69 -0.04 -11.64 0.04 -11.53 0.14 -11.45 0.23 -11.4 0.35 -11.26 0.46 -11.14 0.59 -11.05 0.72 -10.97 0.88 -10.88 1.02 -10.73 1.18 -10.64 1.35 -10.52 1.51 -10.41 1.7 -10.3 1.88 -10.18 2.08 -30.52 -137.86 13.12 -2.68 13.12 -2.4 13.11 -2.14 13.1 -1.89 13.06 -1.65 13.07 -1.44 13.02 -1.22 12.99 -1.04 12.99 -0.86 12.96 -0.69 12.9 -0.52 12.84 -0.39 12.83 -0.27 12.79 -0.14 12.72 -0.04 12.71 0.04 12.66 0.13 12.59 0.2 12.53 0.25 12.49 0.3 12.43 0.33 12.36 0.36 12.32 0.37 12.22 0.37 12.2 0.36 12.11 0.34 12.02 0.32 11.95 0.27 11.9 0.23 11.8 0.17 11.68 0.1 11.64 0.02 0.01 0zm2554.93 312.68l-32.54 137.42 0.02 0 -77.92 -17.67 -77.95 -17.26 -78.02 -16.81 -78.06 -16.37 -78.11 -15.92 -78.18 -15.45 -78.22 -14.99 -78.27 -14.5 -78.32 -14.01 -78.39 -13.51 -78.44 -13 -78.5 -12.49 -78.56 -11.96 -78.62 -11.42 -78.68 -10.89 -78.74 -10.32 -78.81 -9.75 -78.87 -9.2 -78.94 -8.6 -78.99 -8.03 -79.06 -7.42 -79.14 -6.8 -79.22 -6.19 -79.28 -5.57 -79.34 -4.93 -79.43 -4.29 -79.49 -3.63 -79.57 -2.96 -79.64 -2.3 -79.72 -1.6 -79.81 -0.93 -79.88 -0.23 -0.24 -141.1 81.16 0.23 81.07 0.93 80.98 1.64 80.88 2.32 80.79 3.02 80.71 3.69 80.61 4.35 80.52 4.99 80.44 5.65 80.34 6.29 80.26 6.9 80.18 7.52 80.09 8.13 80 8.72 79.93 9.32 79.83 9.89 79.78 10.46 79.68 11.01 79.6 11.58 79.52 12.1 79.44 12.63 79.38 13.16 79.29 13.67 79.22 14.17 79.15 14.66 79.08 15.15 79 15.63 78.93 16.08 78.86 16.53 78.8 16.99 78.73 17.42 78.66 17.85 0.02 0zm3005.03 698.22l-32.8 137.36 0 0 -93.92 -21.78 -93.91 -21.82 -93.93 -21.81 -93.9 -21.84 -93.9 -21.84 -93.91 -21.87 -93.89 -21.87 -93.9 -21.87 -187.78 -43.77 -187.78 -43.78 -187.76 -43.79 -187.77 -43.77 -93.89 -21.88 -93.88 -21.88 -93.89 -21.86 -93.88 -21.85 -93.89 -21.84 -93.9 -21.83 -93.88 -21.82 -93.9 -21.79 -93.89 -21.78 -93.91 -21.76 -93.9 -21.73 -93.92 -21.72 -93.91 -21.7 -93.92 -21.66 -93.93 -21.64 -93.93 -21.61 32.54 -137.42 93.97 21.63 93.97 21.64 93.96 21.68 93.95 21.7 93.94 21.72 93.94 21.75 93.93 21.76 93.93 21.78 93.92 21.81 93.92 21.82 93.9 21.83 93.91 21.84 93.9 21.87 93.91 21.86 93.9 21.88 93.89 21.88 187.77 43.77 187.78 43.79 187.76 43.78 187.78 43.77 93.88 21.87 93.89 21.87 93.87 21.85 93.9 21.84 93.88 21.84 93.89 21.81 93.89 21.8 93.9 21.78 0 0zm4573.42 1059.6l-33.16 137.28 0.01 0 -142.81 -33.46 -142.81 -33.41 -142.83 -33.38 -142.83 -33.32 -142.86 -33.29 -142.86 -33.25 -142.87 -33.22 -142.88 -33.17 -142.88 -33.16 -142.9 -33.13 -142.9 -33.11 -142.92 -33.07 -142.91 -33.07 -142.92 -33.04 -142.92 -33.03 -142.94 -33.02 -142.93 -33 -142.94 -32.99 -142.94 -32.99 -142.94 -32.98 -285.9 -65.97 -285.89 -65.99 -142.94 -33.01 -142.95 -33.01 -142.94 -33.03 -142.94 -33.04 -142.94 -33.06 -142.93 -33.09 -142.93 -33.1 -142.92 -33.13 32.8 -137.36 142.9 33.13 142.91 33.1 142.91 33.07 142.92 33.06 142.92 33.04 142.92 33.03 142.93 33.01 142.94 32.99 285.89 65.99 285.88 65.97 142.94 32.98 142.96 32.99 142.94 33.01 142.95 33 142.94 33.02 142.94 33.03 142.94 33.04 142.93 33.07 142.94 33.09 142.92 33.11 142.92 33.13 142.92 33.16 142.9 33.19 142.91 33.22 142.9 33.27 142.88 33.29 142.89 33.34 142.87 33.38 142.85 33.43 142.85 33.46 0.01 0zm3900.71 929.33l-33.44 137.2 -0.02 0 -121.95 -28.93 -121.94 -28.97 -121.92 -29.01 -121.92 -29.04 -121.9 -29.07 -121.9 -29.09 -121.89 -29.12 -121.87 -29.15 -121.88 -29.15 -121.87 -29.17 -121.87 -29.18 -121.85 -29.18 -243.71 -58.38 -243.71 -58.38 -121.85 -29.17 -121.85 -29.16 -121.86 -29.14 -121.86 -29.13 -121.86 -29.11 -121.87 -29.07 -121.86 -29.05 -121.88 -29.02 -121.89 -28.98 -121.89 -28.95 -121.9 -28.89 -121.91 -28.86 -121.92 -28.81 -121.93 -28.75 -121.95 -28.7 -121.95 -28.64 33.16 -137.28 122.03 28.66 122.01 28.72 121.99 28.77 121.98 28.81 121.95 28.88 121.96 28.91 121.93 28.95 121.93 29 121.92 29.02 121.9 29.05 121.91 29.09 121.88 29.11 121.88 29.13 121.88 29.16 121.87 29.16 121.87 29.17 243.71 58.38 243.71 58.38 121.85 29.18 121.85 29.18 121.85 29.17 121.86 29.15 121.87 29.13 121.85 29.12 121.86 29.09 121.88 29.05 121.88 29.04 121.88 28.99 121.9 28.97 121.89 28.91 -0.02 0zm1829.8 423.65l-34.14 137.04 -0.01 0 -56.93 -13.74 -56.96 -13.65 -57 -13.58 -57.02 -13.51 -57.02 -13.44 -57.06 -13.37 -57.08 -13.33 -57.09 -13.26 -57.12 -13.22 -57.13 -13.18 -57.14 -13.13 -57.18 -13.11 -57.17 -13.08 -57.18 -13.05 -57.21 -13.04 -57.2 -13.02 -114.45 -26.04 -114.45 -26.04 -57.24 -13.04 -57.24 -13.06 -57.24 -13.07 -57.24 -13.11 -57.23 -13.14 -57.24 -13.17 -57.23 -13.22 -57.22 -13.26 -57.22 -13.31 -57.22 -13.38 -57.19 -13.44 -57.19 -13.5 33.44 -137.2 57.03 13.46 57.05 13.4 57.06 13.34 57.08 13.29 57.1 13.22 57.13 13.2 57.14 13.15 57.15 13.12 57.18 13.09 57.18 13.07 57.18 13.04 57.2 13.02 114.45 26.04 114.45 26.04 57.24 13.04 57.23 13.04 57.26 13.07 57.23 13.1 57.24 13.11 57.24 13.17 57.23 13.2 57.24 13.24 57.23 13.3 57.2 13.35 57.22 13.41 57.2 13.48 57.18 13.55 57.18 13.62 57.16 13.71 57.15 13.78 -0.01 0zm2109.14 526.29l-34.06 137.06 0 0 -66.13 -16.01 -66.1 -16.09 -66.08 -16.18 -66.05 -16.25 -66.02 -16.31 -66.01 -16.38 -65.98 -16.44 -65.95 -16.49 -65.95 -16.53 -65.93 -16.57 -65.91 -16.61 -65.9 -16.64 -65.88 -16.65 -65.88 -16.68 -65.86 -16.68 -65.85 -16.69 -65.85 -16.69 -65.86 -16.69 -65.83 -16.67 -65.84 -16.66 -65.83 -16.62 -65.84 -16.6 -65.84 -16.57 -65.84 -16.53 -65.84 -16.48 -65.85 -16.44 -65.87 -16.36 -65.86 -16.31 -65.88 -16.24 -65.89 -16.16 -65.91 -16.09 -65.91 -16 34.14 -137.04 66.11 16.04 66.07 16.13 66.05 16.2 66.04 16.28 66 16.35 65.99 16.4 65.97 16.46 65.94 16.5 65.94 16.55 65.9 16.59 65.9 16.62 65.89 16.64 65.88 16.66 65.87 16.69 65.86 16.69 65.85 16.69 65.85 16.69 65.84 16.68 65.84 16.66 65.84 16.65 65.84 16.62 65.85 16.59 65.83 16.55 65.85 16.51 65.87 16.45 65.86 16.42 65.87 16.34 65.88 16.29 65.89 16.21 65.9 16.12 65.94 16.05 65.93 15.97 0 0zm2147.06 501.04l-33.94 137.1 0 0 -66.91 -16.04 -66.94 -15.96 -66.97 -15.89 -66.99 -15.81 -67 -15.75 -67.03 -15.69 -67.05 -15.65 -67.06 -15.58 -67.09 -15.56 -67.09 -15.52 -67.1 -15.48 -67.13 -15.47 -67.13 -15.44 -67.14 -15.43 -67.14 -15.43 -67.16 -15.42 -67.15 -15.42 -67.16 -15.43 -67.17 -15.44 -67.17 -15.47 -67.16 -15.5 -67.16 -15.51 -67.17 -15.56 -67.16 -15.61 -67.15 -15.64 -67.14 -15.71 -67.15 -15.77 -67.13 -15.83 -67.11 -15.9 -67.1 -15.97 -67.1 -16.06 -67.07 -16.14 34.06 -137.06 66.89 16.1 66.92 16.02 66.94 15.93 66.97 15.86 66.99 15.81 67.01 15.73 67.02 15.67 67.05 15.62 67.08 15.59 67.07 15.54 67.1 15.51 67.12 15.48 67.11 15.45 67.13 15.44 67.14 15.43 67.15 15.42 67.16 15.42 67.16 15.43 67.16 15.43 67.17 15.46 67.17 15.47 67.16 15.5 67.17 15.54 67.17 15.56 67.16 15.62 67.15 15.67 67.15 15.71 67.14 15.79 67.13 15.85 67.11 15.91 67.12 16 67.09 16.08 0 0zm2648.08 649.15l-33.8 137.12 0 0 -82.93 -19.89 -82.9 -19.97 -82.88 -20.03 -82.87 -20.1 -82.84 -20.16 -82.82 -20.21 -82.8 -20.26 -82.79 -20.3 -82.78 -20.35 -82.76 -20.38 -82.74 -20.41 -82.75 -20.44 -82.73 -20.46 -82.71 -20.47 -82.71 -20.48 -82.71 -20.49 -82.7 -20.49 -82.69 -20.49 -82.7 -20.48 -82.7 -20.47 -82.7 -20.46 -82.68 -20.42 -82.71 -20.39 -82.71 -20.38 -82.7 -20.33 -82.71 -20.28 -82.73 -20.25 -82.72 -20.19 -82.75 -20.13 -82.76 -20.07 -82.76 -20.01 -82.78 -19.93 33.94 -137.1 82.9 19.97 82.88 20.03 82.86 20.11 82.83 20.15 82.84 20.21 82.79 20.27 82.79 20.3 82.78 20.35 82.75 20.38 82.75 20.41 82.74 20.44 82.74 20.46 82.7 20.47 82.72 20.48 82.71 20.49 82.7 20.49 82.69 20.49 82.69 20.48 82.71 20.47 82.69 20.46 82.69 20.42 82.7 20.39 82.72 20.38 82.7 20.33 82.71 20.28 82.72 20.24 82.74 20.19 82.74 20.14 82.75 20.06 82.78 20.01 82.78 19.93 82.79 19.87 0 0zm2872.97 676.19l-34.18 137.02 -0.01 0 -89.56 -21.66 -89.59 -21.57 -89.61 -21.49 -89.63 -21.4 -89.67 -21.34 -89.69 -21.27 -89.7 -21.21 -89.72 -21.15 -89.74 -21.1 -89.76 -21.05 -89.77 -21.02 -89.79 -20.98 -89.8 -20.95 -89.8 -20.93 -89.82 -20.91 -89.83 -20.9 -179.66 -41.78 -179.68 -41.79 -89.85 -20.93 -89.84 -20.93 -89.84 -20.97 -89.84 -20.99 -89.83 -21.04 -89.82 -21.08 -89.82 -21.12 -89.81 -21.18 -89.8 -21.23 -89.79 -21.3 -89.76 -21.38 -89.76 -21.44 33.8 -137.12 89.64 21.42 89.66 21.34 89.67 21.28 89.7 21.21 89.73 21.16 89.74 21.1 89.76 21.06 89.77 21.02 89.78 20.99 89.8 20.95 89.8 20.93 89.81 20.91 179.66 41.79 179.68 41.78 89.85 20.9 89.84 20.93 89.84 20.93 89.84 20.97 89.83 20.98 89.83 21.04 89.84 21.07 89.82 21.12 89.8 21.17 89.8 21.23 89.79 21.29 89.77 21.36 89.75 21.44 89.75 21.51 89.73 21.61 89.7 21.7 -0.01 0zm583.13 222.29l-65.24 125.62 0.01 0 -16.57 -8.3 -16.65 -8.23 -16.69 -8.15 -16.75 -8.05 -16.82 -7.99 -16.84 -7.88 -16.91 -7.78 -16.97 -7.7 -17.03 -7.59 -17.05 -7.49 -17.09 -7.37 -17.16 -7.28 -17.2 -7.15 -17.22 -7.04 -17.28 -6.92 -17.31 -6.79 -17.33 -6.66 -17.36 -6.53 -17.42 -6.4 -17.46 -6.27 -17.46 -6.13 -17.49 -5.98 -17.52 -5.83 -17.54 -5.69 -17.57 -5.52 -17.57 -5.38 -17.6 -5.21 -17.63 -5.06 -17.62 -4.88 -17.65 -4.72 -17.65 -4.54 -17.67 -4.38 34.18 -137.02 19.01 4.7 18.97 4.88 18.93 5.06 18.9 5.24 18.83 5.4 18.82 5.57 18.77 5.74 18.71 5.9 18.66 6.05 18.62 6.19 18.59 6.36 18.52 6.49 18.44 6.63 18.42 6.76 18.38 6.91 18.31 7.04 18.25 7.17 18.18 7.28 18.14 7.4 18.06 7.53 18 7.62 17.97 7.75 17.87 7.85 17.81 7.95 17.73 8.04 17.69 8.14 17.62 8.24 17.52 8.31 17.47 8.41 17.39 8.49 17.29 8.55 17.25 8.64 0.01 0zm24.63 630.15l-67.46 -124.48 0 0 21.92 -12.13 20.11 -12.32 18.34 -12.48 16.55 -12.54 14.83 -12.57 13.12 -12.52 11.46 -12.38 9.83 -12.19 8.28 -11.93 6.82 -11.66 5.47 -11.35 4.18 -11.04 3.03 -10.79 1.94 -10.58 0.91 -10.46 -0.08 -10.46 -1.08 -10.55 -2.12 -10.74 -3.22 -11.02 -4.42 -11.32 -5.68 -11.67 -7.03 -11.96 -8.46 -12.24 -9.96 -12.49 -11.5 -12.64 -13.09 -12.77 -14.68 -12.81 -16.31 -12.78 -17.94 -12.7 -19.57 -12.54 -21.21 -12.34 -22.85 -12.08 65.24 -125.62 27.83 14.72 26.39 15.36 24.95 15.98 23.46 16.62 22.01 17.24 20.5 17.89 18.97 18.51 17.42 19.18 15.82 19.83 14.16 20.5 12.41 21.14 10.6 21.75 8.68 22.34 6.68 22.84 4.58 23.24 2.4 23.51 0.18 23.6 -2.05 23.56 -4.28 23.36 -6.43 22.97 -8.54 22.5 -10.53 21.91 -12.44 21.26 -14.28 20.59 -16.03 19.87 -17.72 19.18 -19.36 18.46 -20.97 17.79 -22.59 17.12 -24.16 16.44 -25.73 15.78 -27.3 15.11 0 0zm-1182.49 540.18l-53.3 -130.96 0.01 -0.01 37.33 -14.82 37.29 -14.92 37.26 -15.06 37.2 -15.16 37.16 -15.3 37.14 -15.4 37.07 -15.52 37.03 -15.65 36.99 -15.76 36.93 -15.89 36.89 -16 36.82 -16.13 36.79 -16.25 36.71 -16.36 36.66 -16.48 36.61 -16.61 36.54 -16.73 36.48 -16.84 36.41 -16.98 36.36 -17.09 36.29 -17.22 36.21 -17.34 36.15 -17.46 36.08 -17.59 36.02 -17.71 35.92 -17.82 35.86 -17.96 35.8 -18.08 35.69 -18.2 35.62 -18.32 35.55 -18.46 35.46 -18.58 67.46 124.48 -35.94 18.82 -36.01 18.7 -36.1 18.58 -36.19 18.44 -36.24 18.3 -36.32 18.2 -36.4 18.06 -36.46 17.93 -36.54 17.81 -36.61 17.68 -36.67 17.56 -36.75 17.42 -36.78 17.31 -36.87 17.18 -36.94 17.06 -36.98 16.93 -37.05 16.81 -37.1 16.68 -37.15 16.56 -37.21 16.43 -37.26 16.31 -37.31 16.2 -37.37 16.07 -37.41 15.94 -37.45 15.83 -37.51 15.7 -37.54 15.58 -37.58 15.46 -37.64 15.34 -37.66 15.22 -37.71 15.1 -37.75 14.98 0.01 -0.01zm-4409.76 1485.23l-41.5 -135.06 0 0 139.15 -41.61 139.09 -41.78 139.02 -41.98 138.96 -42.16 138.88 -42.36 138.79 -42.6 138.71 -42.82 138.62 -43.08 138.53 -43.34 138.41 -43.61 138.33 -43.89 138.2 -44.2 138.09 -44.52 137.97 -44.85 137.84 -45.18 137.72 -45.54 137.57 -45.91 137.45 -46.28 137.28 -46.68 137.15 -47.09 136.98 -47.52 136.83 -47.94 136.67 -48.39 136.49 -48.84 136.31 -49.33 136.14 -49.81 135.95 -50.31 135.76 -50.83 135.58 -51.35 135.37 -51.88 135.16 -52.45 134.96 -53 53.3 130.96 -135.52 53.24 -135.72 52.65 -135.91 52.1 -136.1 51.55 -136.28 51.01 -136.45 50.51 -136.64 49.99 -136.79 49.49 -136.97 49.02 -137.11 48.55 -137.27 48.1 -137.42 47.66 -137.55 47.23 -137.7 46.82 -137.83 46.42 -137.95 46.03 -138.08 45.66 -138.2 45.3 -138.31 44.95 -138.41 44.62 -138.52 44.3 -138.61 43.99 -138.71 43.71 -138.79 43.42 -138.88 43.16 -138.95 42.9 -139.03 42.66 -139.1 42.44 -139.16 42.22 -139.22 42.02 -139.27 41.84 -139.31 41.67 0 0zm-2898.53 822.92l-35.64 -136.66 0 0 90.94 -23.17 90.9 -23.4 90.83 -23.64 90.79 -23.87 90.74 -24.08 90.69 -24.3 90.65 -24.5 90.61 -24.69 90.57 -24.88 90.51 -25.06 90.5 -25.23 90.45 -25.39 90.41 -25.55 90.4 -25.69 90.36 -25.82 90.32 -25.95 90.32 -26.08 90.27 -26.18 90.26 -26.3 90.24 -26.39 90.22 -26.47 90.2 -26.56 90.19 -26.62 90.16 -26.7 90.17 -26.74 90.15 -26.79 90.15 -26.83 90.14 -26.86 90.14 -26.88 90.13 -26.9 90.13 -26.9 90.13 -26.9 41.5 135.06 -90.13 26.9 -90.13 26.9 -90.15 26.9 -90.16 26.88 -90.18 26.88 -90.19 26.85 -90.23 26.81 -90.23 26.76 -90.26 26.72 -90.29 26.66 -90.32 26.58 -90.34 26.51 -90.38 26.43 -90.4 26.34 -90.45 26.24 -90.48 26.12 -90.52 26.01 -90.56 25.88 -90.6 25.75 -90.65 25.61 -90.69 25.45 -90.74 25.31 -90.79 25.12 -90.85 24.96 -90.89 24.77 -90.95 24.58 -91.01 24.38 -91.06 24.18 -91.13 23.95 -91.19 23.74 -91.26 23.5 -91.32 23.25 0 0zm-2985.63 663.27l-28.6 -138.26 0 0 93.54 -18.82 93.53 -18.9 93.51 -18.97 93.5 -19.06 93.48 -19.13 93.46 -19.23 93.43 -19.32 93.42 -19.44 93.39 -19.53 93.37 -19.64 93.34 -19.75 93.3 -19.88 93.29 -20 93.24 -20.13 93.21 -20.27 93.17 -20.4 93.14 -20.55 93.1 -20.69 93.05 -20.85 93 -21.01 92.97 -21.16 92.91 -21.34 92.87 -21.51 92.83 -21.68 92.76 -21.86 92.72 -22.06 92.66 -22.24 92.59 -22.44 92.55 -22.65 92.48 -22.84 92.43 -23.06 92.35 -23.26 35.64 136.66 -92.69 23.36 -92.75 23.14 -92.8 22.92 -92.85 22.71 -92.91 22.52 -92.96 22.32 -93 22.12 -93.06 21.94 -93.09 21.74 -93.13 21.57 -93.19 21.4 -93.21 21.22 -93.26 21.07 -93.29 20.89 -93.32 20.75 -93.36 20.59 -93.39 20.46 -93.43 20.31 -93.44 20.17 -93.47 20.04 -93.5 19.92 -93.52 19.79 -93.53 19.68 -93.55 19.57 -93.58 19.46 -93.59 19.36 -93.6 19.25 -93.62 19.17 -93.62 19.08 -93.63 18.99 -93.65 18.92 -93.64 18.84 0 0zm-1222.63 121.03l-12.18 -140.6 0.04 0 38.32 -3.13 38.35 -2.98 38.33 -2.84 38.32 -2.75 38.3 -2.65 38.3 -2.57 38.28 -2.53 38.23 -2.48 38.21 -2.48 38.2 -2.47 38.14 -2.5 38.09 -2.53 38.06 -2.6 38.03 -2.67 37.94 -2.75 37.9 -2.89 37.84 -3 37.76 -3.15 37.7 -3.32 37.62 -3.5 37.54 -3.71 37.47 -3.93 37.38 -4.17 37.29 -4.42 37.2 -4.69 37.09 -4.99 36.99 -5.29 36.88 -5.61 36.77 -5.97 36.67 -6.32 36.54 -6.7 36.43 -7.1 28.6 138.26 -38.03 7.42 -38.1 6.98 -38.13 6.58 -38.19 6.19 -38.22 5.83 -38.25 5.47 -38.29 5.15 -38.32 4.83 -38.33 4.54 -38.36 4.27 -38.37 4.03 -38.38 3.79 -38.4 3.58 -38.38 3.38 -38.4 3.21 -38.38 3.04 -38.38 2.91 -38.36 2.79 -38.33 2.69 -38.32 2.62 -38.31 2.55 -38.28 2.5 -38.22 2.47 -38.19 2.48 -38.17 2.48 -38.1 2.51 -38.06 2.57 -38 2.63 -37.96 2.71 -37.89 2.82 -37.81 2.94 -37.76 3.07 0.04 0zm-269.82 -93.38l142.12 -17.26 -58.4 -60.81 6.92 1.27 6.8 1.33 6.77 1.4 6.64 1.44 6.55 1.47 6.44 1.49 6.38 1.5 6.36 1.54 12.23 2.98 12.07 2.96 5.77 1.39 5.79 1.37 5.67 1.32 5.52 1.25 5.46 1.18 5.43 1.14 5.26 1.04 5.12 0.95 5.06 0.88 4.94 0.77 4.85 0.69 4.72 0.59 4.51 0.48 4.49 0.37 4.33 0.28 4.2 0.16 4.11 0.07 3.97 -0.05 3.82 -0.15 3.74 -0.26 12.18 140.6 -8.06 0.56 -8 0.31 -7.89 0.09 -7.77 -0.11 -7.72 -0.3 -7.59 -0.48 -7.47 -0.63 -7.47 -0.78 -7.28 -0.91 -7.17 -1.01 -7.1 -1.13 -7 -1.2 -6.94 -1.29 -6.82 -1.36 -6.65 -1.38 -6.64 -1.44 -6.6 -1.49 -6.45 -1.5 -6.33 -1.51 -6.35 -1.53 -12.19 -2.98 -12.03 -2.94 -5.76 -1.38 -5.74 -1.36 -5.66 -1.31 -5.57 -1.25 -5.44 -1.18 -5.33 -1.1 -5.26 -1.03 -5.14 -0.95 -58.4 -60.81zm58.4 60.81l-51.95 -9.2 -6.45 -51.61 58.4 60.81zm-17.87 -194.89l46.62 133.42 47.75 -75.33 0.47 3.76 0.45 3.67 0.46 3.69 0.46 3.76 0.45 3.67 0.45 3.68 0.46 3.75 0.44 3.68 0.44 3.59 0.45 3.66 0.45 3.65 0.45 3.66 0.45 3.69 0.45 3.65 0.44 3.56 0.45 3.61 -142.12 17.26 -0.47 -3.71 -0.46 -3.76 -0.45 -3.69 -0.45 -3.65 -0.45 -3.66 -0.45 -3.69 -0.45 -3.68 -0.46 -3.77 -0.44 -3.66 -0.44 -3.59 -0.45 -3.68 -0.45 -3.67 -0.44 -3.6 -0.46 -3.67 -0.45 -3.67 -0.45 -3.6 47.75 -75.33zm-47.75 75.33l-7.09 -56.72 54.84 -18.61 -47.75 75.33z"/>
  </g>
  <path class="fil1 str1" d="M8014.83 33636.46c0,-225.59 -4.47,-430.59 4.92,-634.88 1.37,-29.99 66.67,-78.14 105.62,-81.64 121.7,-10.8 244.95,-4.28 367.59,-4.28 10126.03,-0.12 20252.16,-0.21 30378.19,-0.21 108.02,0 216.03,3.41 323.82,-0.7 89.01,-3.4 125.64,37.21 124.71,122.05 -1.62,166.68 3.25,333.74 -7.65,499.83 -2.32,34.81 -57.95,89.54 -94.34,94.13 -101.53,12.91 -205.61,4.22 -308.53,4.22 -10101.53,0.49 -20203.03,1 -30304.6,1.48 -185.97,0 -371.92,0 -589.73,0z"/>
  <path class="fil0 str0" d="M25829.71 29323.56c4.11,-75.04 9.41,-125.87 9.41,-176.8 0.4,-1015.15 4.2,-2030.39 -2.89,-3045.53 -1.9,-258.44 -24.92,-518.75 -63.93,-774.27 -47.13,-308.04 -148.38,-600.66 -370.58,-833.97 -298.63,-313.53 -729.71,-322.55 -1025.65,-9.9 -350.25,370.17 -463,845.17 -471.21,1326.69 -21.72,1274.56 -17.82,2549.95 -2.11,3824.71 4.92,392.77 102.64,776.65 356.07,1100.69 305.42,390.76 872.08,398.88 1187.52,19 92.74,-111.75 109.96,-211.19 37.83,-345.66 -147.98,-276 -277.54,-561.93 -417.29,-842.57 -54.03,-108.55 -36.72,-186.48 78.02,-238.8 98.06,-44.71 194.69,-92.74 290.45,-142.17 195.87,-101.15 201.57,-99.95 320.63,80.23 11.4,17.23 33.61,27.22 73.73,58.35zm-2640.88 -1345.91c0,-598.46 -4.38,-1197.04 1.11,-1795.41 6.4,-686.11 147.66,-1332.99 577.35,-1891.84 424.19,-551.64 1144.91,-774.64 1790.61,-525.73 473.9,182.68 771.74,556.05 982.54,1004.74 214.78,457.6 287.13,945.73 289.03,1444.86 4.38,1177.2 4.59,2354.54 0.69,3531.86 -1.29,398.19 -56.72,789.65 -172.69,1173.84 -25.4,84.12 11.11,199.49 48.94,287.61 90.54,211.2 196.59,415.79 300.92,620.79 50.74,99.44 25.52,175.08 -65.93,221.49 -135.04,68.54 -276.02,125.26 -414.27,187.29 -82.84,37.11 -141.07,13.1 -179.9,-68.24 -37.99,-79.63 -82.34,-156.35 -117.43,-237.2 -45.62,-105.15 -94.64,-106.14 -189.89,-43.72 -186.09,122.16 -372.67,263.02 -580.27,329.25 -655.88,209.39 -1279.56,-9.9 -1705.96,-562.74 -390.95,-506.93 -541.53,-1096 -557.64,-1719.78 -16.9,-651.98 -3.8,-1304.69 -3.8,-1957.07 -1.21,0 -2.3,0 -3.41,0z"/>
  <path class="fil0 str0" d="M10640.83 29370.26c5.82,-67.73 11.85,-104.84 11.78,-141.95 -1.28,-1152.03 3.31,-2304.03 -8.95,-3455.94 -3.59,-337.76 -61.2,-673.8 -217.15,-982.74 -130.79,-259.11 -307.31,-467.31 -609.54,-527.05 -323.52,-63.91 -613.44,99.26 -811.45,452.61 -206.34,368.36 -293.45,771.95 -298.85,1185.73 -14.57,1117.49 -13.51,2235.31 -12.1,3352.91 0.51,412.47 39.36,820.34 207.15,1206.92 124.55,286.94 315.53,501.43 627.55,565.75 292.12,60.22 536.84,-41.4 732.31,-272.41 95.76,-113.16 109.88,-216.6 41.46,-347.65 -115.56,-221.3 -214.44,-451.41 -330.93,-672.2 -189.63,-359.46 -157.1,-325.96 182.74,-498.84 277.48,-141.05 279.14,-137.76 485.98,134.86zm-2639.13 -1386.81c0,-603.36 -6.03,-1206.74 1.71,-1810 7.6,-591.37 113.85,-1161.62 431.49,-1673.76 314.8,-507.53 764.57,-820.55 1367.62,-842.06 357.73,-12.71 692.72,113.05 976.44,348.16 393.64,326.24 631.03,751.22 740.42,1240.34 70.1,313.33 119.49,638.2 123.34,958.43 14.26,1186.91 9.55,2374.06 3.62,3561.09 -1.93,387.87 -55.38,770.73 -174.67,1143.61 -22.32,69.84 -10.2,165.67 20.03,234.49 100.37,228.62 212.63,452.22 327.86,673.91 51.2,98.54 40.26,168.68 -58.48,218.5 -131.11,66.22 -264.65,127.47 -395.89,193.3 -102.32,51.32 -168.15,14.09 -214.14,-80.46 -25.76,-52.92 -52.44,-105.33 -77.75,-158.46 -95.55,-200.39 -97.49,-200.39 -262.23,-60.64 -322.07,273.34 -695.74,399.39 -1115.58,365.48 -568.21,-45.92 -967.91,-363.46 -1259.86,-828.87 -322.9,-514.65 -425.15,-1091.6 -432.34,-1687.86 -7.22,-598.37 -1.59,-1196.83 -1.59,-1795.2z"/>
  <path class="fil0 str0" d="M14673.86 25908.02c-40.75,55.63 -63.4,74.34 -70.03,97.65 -28.04,98.73 -49.51,199.19 -76.6,298.24 -138.25,504.52 -276.43,1009.05 -417.34,1512.87 -27.49,98.24 -14.02,150.28 103.36,143.86 107.28,-5.8 215.67,-6.79 322.64,1.69 125.25,10.01 159.76,-44.81 158.79,-162.26 -4.66,-562.56 -2.92,-1125.21 -4.66,-1687.86 -0.16,-55.12 -8.44,-110.15 -16.16,-204.19zm-1288.35 2670.6c-40.21,-4.41 -68.84,-9.6 -97.61,-10.5 -281.64,-9.32 -281.64,-9.11 -281.22,-284.45 0.56,-334.62 0.56,-334.62 332.29,-331.24 233.72,2.41 229.39,1.21 290.61,-228.9 328.99,-1236.66 660.33,-2472.6 990.85,-3708.86 16.48,-61.52 39.92,-122.25 47.75,-184.98 23.55,-187.96 17.81,-226.09 277.42,-223.68 294.25,2.68 588.64,5.49 882.81,0.9 127.52,-1.9 180.25,53.61 177.22,174.96 -0.61,24.53 0.09,49.03 0.09,73.65 -0.07,2722.4 -0.12,5444.93 -0.25,8167.42 0,39.32 1.27,78.66 -1.51,117.76 -6.07,85.35 -43.95,132.96 -138.99,132.26 -343.37,-2.8 -686.75,-3.1 -1030.12,-0.2 -144.95,1.32 -150.42,-91.75 -150.33,-197.38 0.58,-755.44 0,-1510.88 0.28,-2266.32 0.12,-353.15 -4.61,-706.5 4.8,-1059.46 3.89,-145.97 -50.72,-192.4 -189.06,-184.38 -141.77,8.3 -284.76,7.9 -426.56,-0.42 -114.3,-6.58 -164.64,38.13 -193.78,148.17 -208.2,786.36 -422.25,1571.22 -634.21,2356.65 -97.1,359.78 -192.48,719.93 -291.02,1079.28 -37.88,138.27 -386.81,231.02 -478.09,120.96 -31.02,-37.32 -26.4,-121.16 -11.85,-176.89 173.58,-664.08 352.27,-1326.78 529.25,-1989.96 125.15,-468.93 250.04,-937.94 374.06,-1407.24 9.52,-36.12 11.1,-74.24 17.17,-117.15z"/>
  <path class="fil0 str2" d="M15158.35 38771.53c-1237.4,-12.21 -2203.94,-712.81 -2658.57,-1894.95 -206.58,-537.04 -297.68,-1095.49 -289.57,-1670.55 2.04,-144.85 55.98,-208.48 182.13,-208.08 144.48,0.5 137.67,104.24 144.92,205.98 48.5,678.8 164.14,1339.41 476.75,1956.48 271.62,536.34 700.08,880.09 1242.5,1110.8 615.24,261.81 1263.17,279.32 1909.13,242.11 1105.15,-63.53 2210.15,-144.37 3311.55,-254.31 817.15,-81.54 1629.03,-217.21 2442.27,-335.46 799.07,-116.25 1598.02,-234 2394.97,-363.86 671.11,-109.35 1339,-237.6 2008.51,-356.67 761.35,-135.35 1523.58,-265.6 2284.02,-405.67 1019.83,-187.99 2038.9,-379.97 3057.27,-576.26 965.91,-186.28 1930.67,-379.76 2895.89,-570.95 940.18,-186.18 1882.68,-362.26 2819.16,-565.25 439.26,-95.15 869.48,-234.21 1298.78,-369.86 340.28,-107.64 678.71,-226 1007.17,-365.27 722.75,-306.44 1178.47,-872.89 1481.44,-1577.8 248.49,-578.27 380.61,-1187.33 417.01,-1811.01 34.07,-586.06 54.01,-1176.22 24.34,-1761.69 -51.93,-1024.07 -208.39,-2037.31 -468.01,-3030.35 -144.88,-554.14 -324.52,-1099.2 -488.17,-1648.43 -11.36,-37.53 -26.19,-75.15 -29.67,-113.56 -8.81,-96.45 17.85,-179.27 122.62,-206 106.17,-27 165.97,27.91 196.57,126.78 128.18,416.86 281.4,827.96 381.08,1251.53 196.56,834 380.15,1671.87 538.01,2513.84 145.1,773.63 146.5,1560.2 136.53,2345.75 -7.65,585.16 -47.75,1165.12 -198.89,1733.18 -224.61,844.65 -605.46,1593.78 -1315.7,2139.14 -390.35,299.63 -838.19,485.72 -1298.55,645.29 -1161.32,402.57 -2367.37,624.17 -3566.48,872.29 -862.53,178.49 -1724.14,360.75 -2588.06,532.63 -1219.04,242.62 -2438.47,484.42 -3660.32,712.72 -1015.05,189.59 -2032.98,364.37 -3051.35,536.14 -974.93,164.58 -1950.67,326.15 -2928.59,471.91 -885.71,132.06 -1773.21,255.02 -2662.81,356.87 -1011.14,115.74 -2024.39,217.99 -3038.94,297.42 -776.47,60.68 -1733.11,42.91 -2528.94,35.12z"/>
  <path class="fil0 str0" d="M27601.2 27963.05c0,-1368.81 -0.09,-2737.52 0.12,-4106.33 0.09,-218.52 16.99,-237.02 233.49,-237.11 848.67,-0.39 1697.46,0.19 2546.13,1.3 180.98,0.21 207.9,24.01 209.2,200.09 2.2,313.93 -4.2,627.97 0.3,941.81 1.9,135.37 -56.82,180.99 -186.19,179.78 -441.48,-4.1 -883.09,2.11 -1324.48,-4.89 -129.07,-2.11 -176.2,39.62 -171.49,168.26 7.12,195.99 5.12,392.49 -0.3,588.57 -3.08,113.54 39.73,158.27 154.98,156.56 318.84,-4.68 637.89,2.11 956.62,-3.78 132.66,-2.41 190.28,44.41 179.69,180.18 -7.62,97.42 -5.31,196.29 -0.51,294.11 6.7,135.07 -58.62,183.4 -186.97,181.8 -299.25,-3.71 -598.49,-1.9 -897.81,-2.02 -185.28,0 -202.89,16.71 -202.89,199.49 -0.51,1785.82 -0.61,3571.61 -0.79,5357.4 -0.12,229.99 -15.42,244.71 -239.52,243.99 -294.34,-0.78 -588.78,-3.89 -883.09,1.12 -137.28,2.29 -189.29,-47.03 -188.9,-189.89 4.11,-1383.51 2.41,-2766.94 2.41,-4150.44z"/>
  <path class="fil0 str3" d="M8509.2 22724.22c-104.26,3.38 -167.29,-85.44 -123.96,-201.2 82.06,-219.1 228.56,-375.96 460.51,-437.99 586.39,-156.88 1180.35,-289.43 1758.46,-472.32 1129.38,-357.04 2183.47,-871.87 3133.39,-1588.58 152.2,-114.81 315.38,-215.18 474.61,-320.51 99.44,-65.76 202.87,-64.48 305,-5.77 722.66,415.39 1520.57,626.84 2315.09,842.43 485.6,131.76 979.26,234.12 1470.06,346.43 247.91,56.72 479.61,15.93 677.99,-149.63 801.56,-668.97 1601.23,-1340.2 2401.78,-2010.45 567.35,-475.05 1132.81,-952.31 1703.55,-1423.26 181.68,-149.9 392.39,-249.09 635.9,-222.2 108.44,11.98 223.89,38.6 317.24,91.75 195.59,111.33 373.57,253.49 568.35,366.27 168.17,97.3 344.85,185.11 527.44,249.99 89.22,31.73 200.69,5.84 301.43,-2.39 42.42,-3.45 87.14,-22.02 123.65,-45.06 368.77,-232.89 669.51,-114.23 985.85,137.81 1145.21,912.5 2404.37,1637.93 3748.98,2216.22 103.52,44.53 210.89,84.56 304.93,144.71 53.11,33.96 82.52,104.8 122.65,159.04 -62.84,9.71 -132.36,42.03 -187.18,25.5 -347.26,-104.59 -695.61,-207.9 -1035.27,-334.05 -1138.21,-422.8 -2190.89,-1003.21 -3156.5,-1740.75 -93.35,-71.26 -188.69,-147.24 -295.24,-191.63 -104.85,-43.65 -238.71,-94.51 -336.65,-65.02 -513.72,154.63 -936.91,-38.76 -1360,-293.99 -602.26,-363.37 -794.75,-333.03 -1342.49,107.2 -1039.17,835.41 -2083.43,1664.7 -3131.31,2489.26 -242.11,190.57 -511.32,346.41 -761.04,527.84 -322.35,234.14 -685.21,260.17 -1054.86,198.72 -671.02,-111.54 -1347.27,-209.5 -2005.05,-377.14 -605.26,-154.22 -1190.9,-387.41 -1781.09,-597.42 -154.03,-54.8 -275.59,-59.22 -406.74,49.35 -764.09,632.47 -1624.2,1109.52 -2511.49,1542.5 -764.37,372.96 -1567.12,643.38 -2377.45,892.89 -148.89,45.83 -307.35,60.62 -470.54,91.45z"/>
  <path class="fil0 str0" d="M32050.64 27974.85c0,1358 0.23,2715.91 0,4073.92 0,234.09 -19.01,253.1 -248.95,253.31 -98.06,0 -196.11,-0.81 -294.16,0.3 -104.54,1.21 -152.06,-53.52 -155.07,-153.57 -1.16,-34.21 -0.7,-68.63 -0.7,-102.94 -0.23,-2715.92 -0.23,-5431.83 -0.46,-8147.84 0,-44.02 -0.7,-88.34 2.55,-132.27 6.72,-92.44 54.7,-143.64 150.67,-143.64 112.89,0.09 225.54,-1.12 338.2,0.09 173.15,1.81 207.22,35 207.69,205.19 0.93,377.46 0.23,754.93 0.23,1132.51 0,1004.94 0,2009.89 0,3014.94z"/>
 </g>
</svg>
