<?xml version="1.0" encoding="UTF-8"?>
<!DOCTYPE svg PUBLIC "-//W3C//DTD SVG 1.1//EN" "http://www.w3.org/Graphics/SVG/1.1/DTD/svg11.dtd">
<!-- Creator: CorelDRAW -->
<svg xmlns="http://www.w3.org/2000/svg" xml:space="preserve" width="500mm" height="500mm" version="1.1" style="shape-rendering:geometricPrecision; text-rendering:geometricPrecision; image-rendering:optimizeQuality; fill-rule:evenodd; clip-rule:evenodd"
viewBox="0 0 50000 50000"
 xmlns:xlink="http://www.w3.org/1999/xlink"
 xmlns:xodm="http://www.corel.com/coreldraw/odm/2003">
 <defs>
  <style type="text/css">
   <![CDATA[
    .str1 {stroke:white;stroke-width:423.33;stroke-miterlimit:10}
    .str2 {stroke:white;stroke-width:423.33;stroke-miterlimit:10}
    .str0 {stroke:white;stroke-width:20;stroke-miterlimit:10}
    .fil0 {fill:white;fill-rule:nonzero}
   ]]>
  </style>
 </defs>
 <g id="Слой_x0020_1">
  <metadata id="CorelCorpID_0Corel-Layer"/>
  <path class="fil0 str0" d="M37932.35 26323.71c-31.06,48.63 -70.93,93.74 -91.79,146.35 -230.88,583.47 -458.27,1168.23 -687.75,1752.19 -29.9,76.24 -66.99,149.67 -113.82,253.12 -44.5,-64.92 -78.35,-103.66 -100.37,-148.26 -252.89,-514.13 -503.47,-1029.47 -757.29,-1543.09 -21.79,-44.02 -64.44,-77.63 -97.36,-116.16 -18.31,50.02 -52.85,100.05 -53.08,150.07 -3.01,1746.39 -2.78,3492.75 -3.01,5239.14 0,228.2 -17.62,246.4 -238.53,246.31 -922.1,-0.4 -1844.43,-0.81 -2766.54,-1.51 -192.16,-0.09 -206.53,-14.51 -206.76,-211.08 -0.24,-2756.94 -0.24,-5513.87 0,-8270.79 0,-176.07 24.11,-199.99 206.76,-200.5 284.42,-0.79 569.07,-1.21 853.49,0.51 233.66,1.39 241.54,10.71 241.54,240.19 0.46,2256.51 0.69,4513.11 0.69,6769.62 0,433.91 -3.47,344.16 342.61,349.47 240.37,3.61 480.98,-6.31 721.13,3.4 132.82,5.4 166.66,-44.02 165.74,-169.67 -4.64,-662.19 -1.39,-1324.4 -1.63,-1986.7 -0.23,-1687.44 0.24,-3375 -3.71,-5062.46 -0.23,-111.24 33.62,-145.76 142.1,-144.06 304.12,4.7 608.24,3.01 912.37,-1 101.52,-1.3 163.42,38.83 207.69,129.46 238.76,489.03 480.52,976.74 722.76,1464.05 26.19,53.02 63.97,100.35 122.85,191.5 73.48,-187.3 131.66,-329.76 185.67,-473.71 139.31,-371.97 280.48,-743.34 412.84,-1117.82 44.97,-127.44 116.83,-173.08 250.81,-168.47 259.85,9.11 519.93,2.41 779.77,2.11 213.49,-0.21 233.2,19.8 233.2,237.09 -0.23,2030.83 -0.47,4061.72 -0.47,6092.63 0,696.6 0.24,1393.12 -0.23,2089.72 0,214.91 -22.02,236.51 -235.05,236.72 -289.28,0.18 -578.8,0 -868.32,-0.39 -200.51,-0.31 -219.52,-18.53 -219.52,-217.02 0,-1471.65 0,-2943.31 0.47,-4414.97 0,-387.45 1.62,-775.05 0.69,-1162.5 0,-56.12 -9.27,-112.26 -14.37,-168.29 -14.6,-5.1 -28.97,-10.2 -43.58,-15.2z"/>
  <path class="fil0 str0" d="M21107.61 25896.13c-16.11,-2.02 -32.22,-4.1 -48.33,-6.12 -184.29,681.31 -368.45,1362.61 -559.04,2067.13 161.47,0 298.12,-9 432.89,2.5 135.86,11.61 177.58,-34.42 175.87,-170.88 -6.49,-529.53 -1.9,-1059.26 -1.39,-1588.9 0,-101.26 0,-202.51 0,-303.73zm1314.89 2049.11c0,1368.7 0,2737.52 0,4106.22 -0.1,212.21 -8.12,220.21 -226.7,220.42 -299.24,0.27 -598.58,0.69 -897.81,-0.21 -161.18,-0.51 -195.69,-35.33 -195.69,-200.3 -0.19,-1113.6 -1.51,-2227.28 3.4,-3340.88 0.61,-128.67 -33,-174.98 -165.66,-165.08 -156.07,11.7 -313.95,6.39 -470.72,0.2 -96.13,-3.91 -137.97,34.01 -162.47,126.57 -195.68,739.3 -396.17,1477.54 -595.08,2216.08 -108.43,402.38 -218.47,804.44 -323.73,1207.64 -33.22,127.46 -99.63,188.59 -237.81,187.87 -726.02,-3.71 -1452.13,-1.09 -2178.2,-1.99 -175.15,-0.21 -200.09,-27.82 -200.3,-208.9 -0.44,-382.66 -21.49,-766.94 7.42,-1147.41 19.4,-255.31 103.24,-507.02 169.91,-757.34 400.04,-1501.77 803.39,-3002.64 1205.85,-4503.71 118.03,-440.49 236.39,-880.89 355.05,-1321.19 51.22,-189.98 20.51,-229.9 -173.88,-229.6 -529.83,0.7 -1059.63,0.7 -1589.46,0.09 -205.88,-0.18 -218.05,-12.88 -221.78,-214.48 -5.77,-312.66 -5.77,-312.33 303.4,-312.33 740.7,-0.12 1481.42,-0.81 2222.16,-0.72 149.46,0 175.66,31.02 137.04,174.69 -269.22,1003.95 -540.72,2007.39 -809.84,3011.34 -181.59,677.3 -359.36,1355.6 -541.17,2032.71 -161.44,601.27 -325.79,1201.84 -489.77,1802.41 -51.53,188.78 -21.69,232.29 170.21,232.59 515.16,0.9 1030.29,-2.2 1545.33,2.9 111.75,1.2 163.86,-31.62 192.97,-144.67 168.89,-655.18 345.87,-1308.17 519.75,-1961.96 44.22,-166.48 28.81,-185.58 -146.87,-188.99 -196.9,-3.7 -204.38,-9.31 -201.39,-213 6.21,-414.48 -71.84,-405.79 405.07,-399.46 111.15,1.39 167.68,-30.92 197.19,-143.97 220.61,-844.29 446.4,-1687.26 671.6,-2530.34 123.85,-464.2 249.21,-927.92 374.68,-1391.71 75.34,-278.23 76.03,-277.42 365.46,-277.93 264.92,-0.51 529.83,0 794.66,-5.1 134.35,-2.59 190.47,43.51 189.98,189.08 -4.61,1383.53 -2.71,2766.94 -2.8,4150.46z"/>
  <g>
   <path class="fil0" d="M27709.8 21840.78c141.72,-48.09 280.81,-106.28 425.5,-142.72 987.7,-248.65 1982.2,-473.12 2963.72,-743.45 1125.29,-309.92 2240.95,-655.21 3358.26,-992.85 679.8,-205.42 1359.12,-413.58 2031.39,-641.53 1043.69,-353.92 2081.02,-725.7 3121.18,-1090.32 32.7,-11.48 67.75,-22.23 94.56,-42.61 47.99,-36.37 90.09,-79.83 134.79,-120.33 -53.17,-32.01 -102.56,-79.94 -159.96,-93.48 -469.03,-110.22 -940.66,-210.41 -1409.69,-320.58 -914.32,-214.79 -1826.98,-436.62 -2741.53,-650.88 -1170.94,-274.33 -2343.3,-542.55 -3514.24,-816.21 -1074.15,-251.02 -2147.85,-503.7 -3220.73,-759.57 -709.95,-169.33 -1417.36,-349.55 -2127.59,-517.84 -1015.02,-240.14 -2032.26,-470.79 -3047.3,-711.16 -865.46,-204.91 -1728.19,-421.65 -2593.76,-626.33 -1208.53,-285.58 -2417.65,-568.61 -3628.44,-844.45 -542.34,-123.55 -1086.69,-242.69 -1635.11,-334.95 -568.63,-95.5 -1146.41,-161.33 -1721.11,-66.53 -864.11,142.79 -1403.58,675.47 -1645.1,1479.82 -114.11,380.15 -163.56,789.28 -175.53,1187.05 -37.73,1254.97 -43.8,2510.86 -62.33,3766.41 -3.74,252.25 -79.56,484.07 -222.85,690.82 -34.63,49.95 -107.03,74.47 -162.1,110.68 -30.06,-55.68 -84.77,-110.71 -86.28,-167.13 -10.61,-397 -15.78,-794.33 -12.27,-1191.5 7.9,-897.6 3.26,-1795.92 40.12,-2692.5 22.87,-555.95 57.35,-1121.55 183.62,-1660.95 255,-1089 957.27,-1782.55 2081.92,-2025.24 123.98,-26.66 257.82,-11.36 387.1,-11.59 859.37,-1.39 1703.77,119.14 2538.54,310.84 1002.19,230.41 2003.18,465.92 3004.9,698.19 1524.35,353.49 3049.82,702.35 4573.24,1059.56 1301.31,305.28 2599.98,620.99 3900.57,929.29 609.04,144.18 1221.12,276.3 1829.45,423.57 704.24,170.42 1404.69,356.27 2109.18,526.3 714.38,172.44 1432.51,329.3 2147.12,501.06 883.74,212.42 1764.18,437.57 2648.15,649.16 956.65,229.02 1916.83,444.41 2872.78,676.14 195.71,47.42 387.65,125.86 567.6,216.59 278.5,140.45 294.97,362.24 23.52,505.1 -380.36,200.16 -774.83,378.67 -1175.41,536.94 -1441.45,569.7 -2918.42,1039.88 -4403.86,1483.18 -961.36,286.85 -1923.19,575.88 -2895.6,822.12 -986.59,249.84 -1983.75,461.96 -2982.11,662.47 -396.64,79.65 -808.82,85.95 -1214.42,119.86 -62.83,5.29 -128.4,-20.33 -192.67,-31.71 -2.44,-19.52 -4.77,-39.13 -7.22,-58.74z"/>
   <path id="_1" class="fil0" d="M28117.76 21630.38l35.08 135.36 0.01 -0.01 -12.92 3.32 -12.9 3.44 -12.91 3.56 -12.93 3.67 -12.9 3.78 -12.94 3.88 -12.93 3.98 -12.93 4.08 -12.96 4.17 -12.95 4.23 -12.98 4.34 -13.01 4.39 -12.97 4.45 -13.02 4.53 -13.04 4.57 -13.04 4.62 -13.08 4.68 -13.1 4.71 -13.12 4.74 -13.14 4.77 -26.39 9.6 -26.45 9.62 -13.34 4.82 -13.28 4.8 -13.35 4.79 -13.42 4.79 -13.45 4.74 -13.46 4.71 -13.5 4.68 -13.56 4.63 -46.16 -132.08 13 -4.45 13.02 -4.5 13.06 -4.57 13.03 -4.6 13.04 -4.65 13.09 -4.71 13.16 -4.74 13.1 -4.74 26.37 -9.6 26.45 -9.62 13.28 -4.81 13.32 -4.82 13.34 -4.79 13.38 -4.78 13.42 -4.76 13.46 -4.73 13.5 -4.69 13.57 -4.65 13.57 -4.59 13.62 -4.54 13.69 -4.49 13.72 -4.41 13.79 -4.34 13.85 -4.26 13.88 -4.18 13.96 -4.08 13.99 -3.97 14.05 -3.88 14.14 -3.76 14.18 -3.64 0.01 -0.01zm2962.18 -743.04l38.16 134.54 0 0 -92.25 25.27 -92.31 25.01 -92.38 24.75 -92.43 24.53 -92.48 24.31 -92.53 24.1 -92.58 23.9 -92.61 23.72 -92.66 23.56 -92.68 23.4 -92.73 23.25 -92.74 23.13 -92.77 23 -92.78 22.9 -92.81 22.82 -92.81 22.72 -92.82 22.67 -92.84 22.62 -92.82 22.57 -92.82 22.55 -92.83 22.53 -92.8 22.53 -92.8 22.54 -92.78 22.56 -92.76 22.6 -92.73 22.65 -92.71 22.72 -92.68 22.78 -92.64 22.89 -92.6 22.96 -92.56 23.1 -92.52 23.22 -35.08 -135.36 92.72 -23.26 92.74 -23.14 92.76 -23.02 92.8 -22.91 92.8 -22.82 92.81 -22.74 92.83 -22.67 92.82 -22.62 92.84 -22.58 92.82 -22.54 92.82 -22.53 92.81 -22.53 92.8 -22.55 92.78 -22.55 92.76 -22.6 92.74 -22.65 92.71 -22.7 92.67 -22.78 92.64 -22.88 92.61 -22.96 92.56 -23.07 92.51 -23.21 92.46 -23.34 92.42 -23.5 92.35 -23.66 92.3 -23.82 92.23 -24.02 92.16 -24.23 92.09 -24.43 92.02 -24.67 91.95 -24.91 91.85 -25.15 0 0zm3356.56 -992.36l41.56 133.56 0 0 -104.71 31.66 -104.72 31.72 -104.72 31.73 -104.71 31.76 -209.45 63.56 -209.47 63.54 -104.76 31.75 -104.77 31.74 -104.79 31.7 -104.8 31.65 -104.82 31.61 -104.85 31.55 -104.86 31.49 -104.91 31.42 -104.92 31.34 -104.95 31.24 -104.99 31.16 -105.03 31.06 -105.05 30.93 -105.1 30.82 -105.14 30.7 -105.18 30.55 -105.23 30.42 -105.28 30.26 -105.32 30.11 -105.38 29.94 -105.43 29.77 -105.48 29.58 -105.54 29.39 -105.6 29.19 -38.16 -134.54 105.34 -29.13 105.28 -29.31 105.24 -29.52 105.19 -29.69 105.16 -29.88 105.1 -30.05 105.08 -30.2 105.03 -30.36 105 -30.51 104.96 -30.64 104.94 -30.78 104.91 -30.89 104.89 -31 104.85 -31.12 104.83 -31.22 104.82 -31.3 104.79 -31.38 104.78 -31.47 104.77 -31.53 104.76 -31.59 104.74 -31.63 104.73 -31.68 104.73 -31.72 104.72 -31.75 209.45 -63.54 209.45 -63.56 104.75 -31.76 104.74 -31.75 104.76 -31.72 104.77 -31.68 0 0zm2029.11 -640.8l46.12 132.1 0 0 -63.17 21.35 -63.2 21.24 -63.25 21.13 -63.27 21.03 -63.31 20.91 -63.34 20.82 -63.37 20.71 -63.4 20.63 -63.43 20.53 -63.47 20.44 -63.48 20.35 -63.5 20.26 -63.53 20.2 -63.55 20.12 -63.58 20.04 -63.59 19.96 -63.61 19.91 -63.64 19.85 -63.64 19.77 -63.66 19.72 -63.68 19.67 -63.69 19.62 -63.7 19.56 -63.71 19.52 -63.72 19.48 -63.73 19.44 -63.72 19.4 -63.74 19.38 -63.74 19.34 -63.75 19.32 -63.75 19.29 -63.75 19.27 -41.56 -133.56 63.71 -19.27 63.71 -19.27 63.69 -19.3 63.68 -19.32 63.68 -19.36 63.66 -19.38 63.65 -19.42 63.64 -19.46 63.61 -19.48 63.6 -19.54 63.59 -19.58 63.56 -19.63 63.54 -19.7 63.52 -19.73 63.5 -19.79 63.47 -19.87 63.45 -19.92 63.42 -20 63.39 -20.06 63.37 -20.14 63.34 -20.22 63.3 -20.29 63.27 -20.38 63.23 -20.47 63.2 -20.55 63.17 -20.65 63.12 -20.74 63.09 -20.85 63.05 -20.95 63.01 -21.05 62.96 -21.16 62.93 -21.27 0 0zm3120.45 -1090.07l47.58 131.6 -0.03 0.01 -97.49 34.19 -97.46 34.23 -97.46 34.27 -97.45 34.3 -97.44 34.31 -97.43 34.35 -97.44 34.36 -97.43 34.36 -194.87 68.75 -194.88 68.74 -97.45 34.35 -97.46 34.34 -97.47 34.31 -97.48 34.29 -97.49 34.26 -97.51 34.23 -97.53 34.18 -97.54 34.14 -97.57 34.1 -97.58 34.03 -97.61 33.99 -97.64 33.91 -97.66 33.86 -97.69 33.78 -97.72 33.71 -97.76 33.62 -97.78 33.54 -97.83 33.45 -97.86 33.36 -97.9 33.25 -46.12 -132.1 97.76 -33.21 97.72 -33.3 97.69 -33.41 97.66 -33.5 97.64 -33.58 97.62 -33.67 97.57 -33.74 97.58 -33.82 97.54 -33.89 97.53 -33.95 97.5 -34.01 97.49 -34.08 97.48 -34.12 97.47 -34.16 97.45 -34.21 97.45 -34.24 97.44 -34.27 97.45 -34.31 97.42 -34.32 97.43 -34.35 194.86 -68.72 194.87 -68.75 97.45 -34.38 97.44 -34.36 97.47 -34.35 97.46 -34.33 97.49 -34.3 97.5 -34.29 97.52 -34.25 97.53 -34.21 -0.03 0.01zm75.14 -32.18l86.42 110.74 0.08 -0.06 -3.84 2.84 -3.8 2.7 -3.94 2.67 -3.87 2.49 -3.83 2.37 -3.96 2.35 -3.88 2.2 -3.78 2.07 -3.87 2.03 -3.85 1.95 -3.75 1.83 -3.78 1.79 -3.71 1.69 -3.74 1.66 -3.82 1.64 -3.65 1.51 -3.63 1.48 -3.5 1.39 -3.56 1.39 -3.67 1.39 -3.42 1.27 -3.42 1.25 -3.53 1.28 -3.3 1.16 -3.25 1.15 -3.31 1.16 -3.17 1.1 -3.17 1.1 -6.13 2.12 -5.93 2.07 -47.58 -131.6 6.39 -2.23 6.25 -2.16 3.05 -1.06 3.05 -1.06 2.93 -1.02 2.97 -1.05 2.92 -1.04 2.69 -0.96 2.78 -1.03 2.78 -1.03 2.51 -0.95 2.58 -1.01 2.62 -1.03 2.47 -1 2.41 -1.01 2.2 -0.94 2.24 -1 2.21 -1.01 2.1 -0.99 2.07 -1.01 1.93 -0.97 1.83 -0.97 1.86 -1.01 1.7 -0.96 1.54 -0.91 1.59 -0.99 1.47 -0.95 1.32 -0.89 1.36 -0.96 1.24 -0.92 0.08 -0.06zm-0.08 0.06l0.08 -0.06 -0.35 0.27 0.27 -0.21zm141.13 -5.41l73.9 -119.22 11.02 111.03 -3.96 3.61 -4.04 3.7 -3.99 3.68 -4.02 3.73 -4.01 3.73 -4.01 3.75 -4.08 3.84 -4.06 3.81 -8.23 7.76 -8.28 7.79 -4.21 3.95 -4.19 3.92 -4.23 3.95 -4.27 3.96 -4.31 3.99 -4.36 3.99 -4.37 3.99 -4.39 3.96 -4.47 4.01 -4.53 4 -4.47 3.93 -4.56 3.96 -4.65 3.99 -4.69 3.95 -4.7 3.92 -4.81 3.95 -4.84 3.9 -4.87 3.87 -4.94 3.86 -5.01 3.83 -86.42 -110.74 3.95 -3.03 3.96 -3.08 3.97 -3.15 3.94 -3.18 3.91 -3.21 3.96 -3.3 3.93 -3.33 3.91 -3.35 3.96 -3.44 4.01 -3.51 3.93 -3.48 3.93 -3.53 3.99 -3.6 3.99 -3.63 3.96 -3.63 3.99 -3.69 4.01 -3.72 4.03 -3.77 4.07 -3.8 4.03 -3.79 8.2 -7.71 8.23 -7.76 4.18 -3.93 4.16 -3.9 4.25 -3.99 4.27 -3.97 4.28 -3.97 4.33 -3.98 4.3 -3.94 4.4 -4.01 11.02 111.03zm73.9 -119.22l80.24 48.31 -69.22 62.72 -11.02 -111.03zm-213.35 34.07l32.88 -135.88 0.06 0.01 7.89 2.01 7.67 2.26 7.52 2.48 7.32 2.68 7.1 2.85 6.98 3.03 6.75 3.15 6.55 3.24 6.36 3.33 6.29 3.45 6.16 3.54 5.95 3.56 5.82 3.6 5.7 3.63 5.56 3.63 5.47 3.65 5.43 3.7 5.27 3.65 5.15 3.61 5.11 3.62 9.79 6.96 9.66 6.87 4.65 3.27 4.54 3.19 4.46 3.06 4.44 3.01 4.32 2.88 4.23 2.74 4.2 2.65 4.07 2.5 -73.9 119.22 -5.87 -3.6 -5.72 -3.61 -5.63 -3.66 -5.52 -3.66 -5.38 -3.65 -5.34 -3.68 -5.22 -3.65 -5.11 -3.61 -9.84 -6.99 -9.69 -6.9 -4.65 -3.28 -4.61 -3.23 -4.51 -3.13 -4.37 -2.98 -4.37 -2.91 -4.28 -2.81 -4.2 -2.67 -4.1 -2.54 -4.03 -2.4 -3.84 -2.22 -3.79 -2.07 -3.76 -1.97 -3.63 -1.8 -3.49 -1.63 -3.34 -1.45 -3.28 -1.31 -3.14 -1.16 -3.02 -1 -2.95 -0.86 -2.83 -0.73 0.06 0.01zm-1409.69 -320.57l32.88 -135.9 -0.01 0 43.89 10.28 43.91 10.22 43.94 10.19 43.94 10.13 43.96 10.08 43.98 10.05 44 10.02 44 9.97 44.03 9.95 44.04 9.94 44.05 9.91 44.04 9.89 44.07 9.88 44.08 9.87 44.08 9.86 44.09 9.86 44.1 9.86 44.1 9.88 44.11 9.87 44.11 9.89 44.11 9.91 44.11 9.93 44.1 9.94 44.12 9.97 44.11 10.02 44.1 10.04 44.11 10.07 44.1 10.13 44.09 10.17 44.09 10.21 44.07 10.27 44.07 10.33 -32.88 135.88 -43.89 -10.27 -43.91 -10.23 -43.93 -10.19 -43.95 -10.13 -43.96 -10.09 -43.97 -10.05 -44 -10.02 -44.01 -9.98 -44.02 -9.95 -44.04 -9.94 -44.05 -9.91 -44.05 -9.89 -44.07 -9.89 -44.07 -9.87 -44.08 -9.86 -44.08 -9.86 -44.11 -9.86 -44.1 -9.88 -44.1 -9.87 -44.11 -9.88 -44.12 -9.91 -44.11 -9.93 -44.1 -9.94 -44.11 -9.97 -44.12 -10.01 -44.1 -10.04 -44.1 -10.07 -44.1 -10.12 -44.1 -10.17 -44.08 -10.21 -44.07 -10.26 -44.07 -10.32 -0.01 0zm-2741.48 -650.87l32.78 -135.92 0 0 85.77 20.12 85.76 20.16 85.74 20.2 85.73 20.22 85.73 20.27 85.71 20.3 85.71 20.32 85.68 20.36 85.69 20.36 85.69 20.39 85.66 20.42 85.67 20.42 85.66 20.43 85.66 20.44 85.65 20.45 85.64 20.46 171.29 40.9 171.29 40.89 85.64 20.44 85.63 20.42 85.65 20.4 85.64 20.39 85.64 20.37 85.66 20.33 85.65 20.33 85.65 20.28 85.67 20.27 85.66 20.22 85.68 20.18 85.68 20.15 -32.88 135.9 -85.74 -20.17 -85.74 -20.2 -85.72 -20.24 -85.71 -20.27 -85.71 -20.3 -85.69 -20.33 -85.68 -20.35 -85.68 -20.37 -85.68 -20.39 -85.67 -20.42 -85.67 -20.42 -85.66 -20.44 -171.29 -40.89 -171.29 -40.92 -85.64 -20.44 -85.65 -20.45 -85.64 -20.44 -85.64 -20.43 -85.65 -20.42 -85.64 -20.4 -85.65 -20.39 -85.65 -20.36 -85.66 -20.34 -85.65 -20.32 -85.67 -20.28 -85.67 -20.25 -85.67 -20.22 -85.68 -20.18 -85.7 -20.14 -85.69 -20.1 0 0zm-3514.21 -816.2l32.72 -135.94 0 0.01 109.76 25.63 109.77 25.61 109.77 25.57 109.79 25.56 109.79 25.53 109.8 25.51 109.81 25.49 109.82 25.48 109.8 25.45 109.84 25.44 109.83 25.44 109.83 25.43 219.67 50.84 219.68 50.83 109.85 25.42 109.84 25.42 109.84 25.43 109.85 25.44 109.84 25.44 109.85 25.47 109.85 25.48 109.83 25.49 109.84 25.51 109.83 25.54 109.83 25.55 109.83 25.59 109.81 25.61 109.81 25.63 109.81 25.68 109.8 25.7 -32.78 135.92 -109.76 -25.7 -109.77 -25.66 -109.77 -25.63 -109.79 -25.61 -109.79 -25.57 -109.79 -25.55 -109.81 -25.52 -109.82 -25.51 -109.81 -25.49 -109.83 -25.48 -109.81 -25.45 -109.84 -25.44 -109.83 -25.44 -109.84 -25.43 -109.84 -25.42 -109.83 -25.42 -219.68 -50.83 -219.69 -50.84 -109.85 -25.43 -109.83 -25.44 -109.84 -25.44 -109.84 -25.47 -109.84 -25.48 -109.83 -25.49 -109.82 -25.53 -109.83 -25.53 -109.81 -25.56 -109.81 -25.59 -109.81 -25.61 -109.8 -25.65 0 0.01zm-3221.04 -759.65l33.34 -135.78 0 0 100.57 23.98 100.58 23.95 100.58 23.94 100.59 23.92 100.59 23.91 100.6 23.88 100.6 23.87 100.61 23.86 100.6 23.83 100.61 23.82 100.62 23.81 100.63 23.79 100.62 23.76 100.63 23.77 100.64 23.74 100.64 23.73 100.64 23.71 100.65 23.7 100.65 23.69 100.65 23.68 100.66 23.67 100.66 23.64 100.66 23.63 100.68 23.63 100.67 23.61 100.67 23.61 100.68 23.58 100.68 23.58 100.68 23.57 100.69 23.55 100.69 23.55 100.7 23.53 -32.72 135.94 -100.7 -23.55 -100.71 -23.55 -100.69 -23.55 -100.7 -23.57 -100.7 -23.58 -100.7 -23.6 -100.69 -23.61 -100.69 -23.61 -100.68 -23.63 -100.68 -23.63 -100.68 -23.66 -100.68 -23.67 -100.67 -23.68 -100.67 -23.69 -100.67 -23.7 -100.66 -23.73 -100.66 -23.73 -100.66 -23.74 -100.65 -23.77 -100.64 -23.78 -100.65 -23.79 -100.64 -23.81 -100.63 -23.82 -100.64 -23.85 -100.63 -23.86 -100.62 -23.87 -100.62 -23.9 -100.61 -23.91 -100.61 -23.92 -100.62 -23.94 -100.6 -23.97 -100.59 -23.98 0 0zm-2127.47 -517.81l33.1 -135.84 0.02 0.01 66.65 15.82 66.63 15.9 66.6 15.95 66.59 16.01 66.57 16.06 66.56 16.11 66.55 16.15 66.53 16.2 66.51 16.23 66.5 16.26 66.49 16.29 66.48 16.31 66.48 16.33 66.47 16.34 66.45 16.35 66.45 16.36 66.45 16.36 66.44 16.36 66.44 16.36 66.44 16.34 66.44 16.32 66.43 16.32 66.43 16.28 66.44 16.27 66.43 16.22 66.46 16.19 66.45 16.16 66.45 16.11 66.45 16.05 66.47 16.01 66.48 15.95 66.48 15.89 -33.34 135.78 -66.62 -15.93 -66.6 -15.97 -66.57 -16.03 -66.57 -16.09 -66.55 -16.13 -66.53 -16.18 -66.52 -16.21 -66.51 -16.24 -66.5 -16.27 -66.49 -16.3 -66.47 -16.32 -66.46 -16.34 -66.46 -16.34 -66.46 -16.36 -66.44 -16.36 -66.45 -16.36 -66.45 -16.36 -66.43 -16.35 -66.43 -16.34 -66.44 -16.31 -66.44 -16.31 -66.43 -16.27 -66.44 -16.24 -66.45 -16.21 -66.45 -16.18 -66.45 -16.13 -66.46 -16.09 -66.47 -16.04 -66.47 -15.97 -66.48 -15.93 -66.49 -15.86 -66.51 -15.8 0.02 0.01zm-3047.31 -711.16l33.12 -135.84 0 0 95.13 22.5 95.13 22.44 95.16 22.4 95.17 22.35 95.18 22.3 95.19 22.28 95.2 22.23 95.21 22.2 95.22 22.17 95.24 22.16 95.23 22.12 95.25 22.11 95.24 22.1 95.25 22.08 95.26 22.08 95.26 22.07 95.27 22.07 95.26 22.09 95.26 22.08 95.27 22.09 95.27 22.11 95.26 22.12 95.26 22.16 95.26 22.16 95.26 22.21 95.25 22.23 95.23 22.27 95.25 22.3 95.23 22.35 95.22 22.39 95.22 22.44 95.2 22.5 -33.1 135.84 -95.12 -22.48 -95.14 -22.42 -95.16 -22.37 -95.17 -22.35 -95.17 -22.28 -95.19 -22.25 -95.21 -22.23 -95.2 -22.19 -95.22 -22.16 -95.24 -22.14 -95.24 -22.12 -95.23 -22.11 -95.25 -22.09 -95.26 -22.08 -95.26 -22.07 -95.25 -22.07 -95.28 -22.09 -95.26 -22.08 -95.27 -22.08 -95.26 -22.1 -95.27 -22.11 -95.27 -22.14 -95.26 -22.16 -95.26 -22.17 -95.25 -22.22 -95.26 -22.25 -95.25 -22.28 -95.24 -22.32 -95.23 -22.37 -95.22 -22.4 -95.21 -22.46 -95.21 -22.52 0 0zm-2593.73 -626.33l33.06 -135.84 0.01 0 81.2 19.23 81.17 19.3 81.16 19.37 81.15 19.42 81.13 19.48 81.1 19.52 81.1 19.56 81.09 19.61 81.06 19.63 81.07 19.67 81.05 19.69 81.04 19.72 81.03 19.73 81.03 19.75 81.02 19.76 81.01 19.76 81.01 19.76 81 19.74 81.02 19.75 81 19.74 81 19.7 81.01 19.7 81 19.66 81.01 19.64 81.02 19.6 81.02 19.56 81.02 19.51 81.04 19.47 81.04 19.42 81.05 19.36 81.05 19.3 81.08 19.22 -33.12 135.84 -81.18 -19.26 -81.17 -19.32 -81.15 -19.38 -81.14 -19.44 -81.12 -19.49 -81.1 -19.53 -81.08 -19.58 -81.08 -19.62 -81.07 -19.64 -81.06 -19.68 -81.03 -19.7 -81.04 -19.72 -81.04 -19.74 -81.02 -19.75 -81.02 -19.76 -81.01 -19.76 -81.01 -19.76 -81 -19.74 -81.01 -19.75 -81.01 -19.73 -81 -19.7 -81.01 -19.69 -81.01 -19.65 -81.02 -19.63 -81.01 -19.59 -81.02 -19.54 -81.04 -19.5 -81.03 -19.46 -81.05 -19.4 -81.06 -19.33 -81.07 -19.28 -81.08 -19.21 0.01 0zm-3627.87 -844.31l31.92 -136.12 0.01 0 113.53 25.89 113.52 25.93 113.51 25.97 113.5 26.01 113.5 26.04 113.48 26.09 113.47 26.11 113.48 26.17 113.45 26.18 113.45 26.23 113.44 26.26 113.43 26.3 113.43 26.32 113.41 26.36 113.41 26.38 113.4 26.42 113.39 26.44 113.4 26.47 113.37 26.5 113.38 26.52 113.37 26.55 113.36 26.58 113.36 26.59 113.34 26.62 113.35 26.64 113.34 26.66 113.33 26.68 113.33 26.71 113.32 26.71 113.32 26.73 113.32 26.75 113.31 26.78 -33.06 135.84 -113.29 -26.76 -113.3 -26.75 -113.3 -26.73 -113.3 -26.71 -113.31 -26.69 -113.31 -26.68 -113.3 -26.66 -113.33 -26.62 -113.32 -26.62 -113.32 -26.59 -113.34 -26.56 -113.33 -26.55 -113.34 -26.52 -113.35 -26.48 -113.36 -26.47 -113.35 -26.44 -113.38 -26.4 -113.37 -26.38 -113.37 -26.34 -113.39 -26.32 -113.39 -26.28 -113.4 -26.26 -113.41 -26.21 -113.41 -26.18 -113.42 -26.15 -113.43 -26.11 -113.44 -26.07 -113.44 -26.04 -113.46 -25.99 -113.47 -25.97 -113.46 -25.91 -113.49 -25.87 0.01 0zm-1631.06 -334.15l23.82 -137.72 0.02 0.01 51.61 8.76 51.59 8.92 51.56 9.06 51.53 9.21 51.5 9.35 51.47 9.49 51.45 9.62 51.41 9.74 51.4 9.88 51.37 9.99 51.35 10.11 51.3 10.22 51.29 10.32 51.29 10.43 51.23 10.53 51.21 10.62 51.2 10.72 51.17 10.79 51.16 10.89 51.12 10.96 51.11 11.04 51.07 11.1 51.08 11.17 51.04 11.24 51.02 11.29 51 11.34 50.98 11.39 50.97 11.44 50.93 11.48 50.94 11.51 50.91 11.56 50.88 11.57 -31.92 136.12 -50.82 -11.57 -50.81 -11.52 -50.82 -11.49 -50.85 -11.46 -50.83 -11.42 -50.84 -11.35 -50.86 -11.32 -50.86 -11.25 -50.88 -11.2 -50.88 -11.13 -50.89 -11.06 -50.91 -11 -50.92 -10.92 -50.92 -10.83 -50.93 -10.75 -50.96 -10.66 -50.97 -10.56 -50.97 -10.49 -50.97 -10.37 -51.01 -10.26 -51.02 -10.16 -51.03 -10.05 -51.03 -9.93 -51.06 -9.8 -51.07 -9.68 -51.09 -9.56 -51.11 -9.41 -51.12 -9.29 -51.13 -9.13 -51.16 -9 -51.17 -8.84 -51.19 -8.7 0.02 0.01zm-1697.48 -66.5l-23.44 -137.78 0.02 0 55.08 -8.61 55.07 -7.66 55.07 -6.76 55.06 -5.86 55.03 -4.99 55.01 -4.16 54.99 -3.34 54.96 -2.55 54.94 -1.79 54.89 -1.04 54.86 -0.34 54.83 0.36 54.79 1.01 54.74 1.67 54.69 2.26 54.65 2.86 54.6 3.42 54.54 3.96 54.49 4.48 54.43 4.97 54.37 5.41 54.32 5.88 54.24 6.28 54.19 6.66 54.12 7.04 54.04 7.37 53.98 7.7 53.9 7.97 53.83 8.26 53.75 8.48 53.66 8.72 53.6 8.9 -23.82 137.72 -53.08 -8.82 -53.1 -8.62 -53.13 -8.4 -53.13 -8.14 -53.16 -7.87 -53.16 -7.58 -53.18 -7.25 -53.18 -6.92 -53.17 -6.54 -53.2 -6.16 -53.18 -5.74 -53.17 -5.31 -53.19 -4.85 -53.17 -4.36 -53.16 -3.86 -53.14 -3.34 -53.13 -2.78 -53.11 -2.2 -53.1 -1.61 -53.07 -0.99 -53.05 -0.34 -53.02 0.32 -53.01 1.02 -52.96 1.71 -52.94 2.47 -52.91 3.2 -52.87 4 -52.85 4.79 -52.78 5.62 -52.77 6.48 -52.73 7.34 -52.7 8.23 0.02 0zm-1588.85 1430.74l-135.94 -39.62 0 -0.01 24.09 -76.42 25.9 -74.84 27.75 -73.25 29.57 -71.63 31.43 -69.98 33.29 -68.3 35.14 -66.61 37.03 -64.88 38.91 -63.12 40.8 -61.34 42.69 -59.52 44.6 -57.68 46.49 -55.8 48.41 -53.89 50.32 -51.95 52.23 -50 54.13 -47.98 56.04 -45.97 57.96 -43.9 59.85 -41.8 61.74 -39.71 63.65 -37.55 65.52 -35.39 67.41 -33.2 69.28 -30.98 71.15 -28.75 73.02 -26.49 74.88 -24.22 76.74 -21.92 78.59 -19.61 80.44 -17.27 82.3 -14.94 23.44 137.78 -77.82 14.12 -75.88 16.29 -73.95 18.45 -72.04 20.58 -70.12 22.68 -68.22 24.75 -66.35 26.81 -64.48 28.84 -62.63 30.84 -60.8 32.83 -58.97 34.81 -57.16 36.75 -55.39 38.7 -53.6 40.6 -51.84 42.51 -50.09 44.4 -48.35 46.28 -46.62 48.15 -44.91 49.99 -43.19 51.84 -41.5 53.66 -39.79 55.48 -38.1 57.28 -36.41 59.06 -34.71 60.84 -33.04 62.61 -31.35 64.34 -29.67 66.06 -27.99 67.79 -26.31 69.47 -24.62 71.14 -22.95 72.8 0 -0.01zm-172.65 1169.31l-141.7 -4.14 0 0 1.24 -37.73 1.48 -37.81 1.71 -37.84 1.94 -37.91 2.19 -37.95 2.43 -38 2.69 -38.02 2.94 -38.05 3.21 -38.06 3.48 -38.07 3.75 -38.08 4.03 -38.08 4.32 -38.05 4.6 -38.04 4.9 -38.01 5.19 -37.97 5.51 -37.94 5.81 -37.89 6.13 -37.84 6.45 -37.76 6.78 -37.71 7.12 -37.62 7.44 -37.53 7.79 -37.44 8.13 -37.35 8.49 -37.25 8.85 -37.13 9.22 -37 9.58 -36.87 9.95 -36.74 10.34 -36.6 10.72 -36.45 135.94 39.62 -10.3 34.99 -9.92 35.18 -9.59 35.34 -9.22 35.51 -8.88 35.64 -8.53 35.79 -8.19 35.93 -7.85 36.07 -7.53 36.18 -7.2 36.31 -6.88 36.4 -6.56 36.51 -6.25 36.6 -5.95 36.68 -5.63 36.75 -5.35 36.84 -5.05 36.89 -4.76 36.95 -4.48 37 -4.2 37.03 -3.93 37.06 -3.65 37.08 -3.38 37.11 -3.13 37.12 -2.88 37.11 -2.61 37.12 -2.39 37.1 -2.13 37.07 -1.9 37.05 -1.67 37.02 -1.44 36.97 -1.22 36.91 0 0zm-62.31 3765.36l-141.74 -2.04 0 0 1.7 -117.67 1.64 -117.67 1.57 -117.68 1.53 -117.68 1.49 -117.7 1.46 -117.69 1.43 -117.71 1.42 -117.72 1.41 -117.7 1.41 -117.72 1.41 -117.73 1.44 -117.72 1.45 -117.74 1.49 -117.73 1.53 -117.74 1.57 -117.74 1.65 -117.74 1.69 -117.75 1.77 -117.75 1.85 -117.76 1.94 -117.75 2.04 -117.75 2.14 -117.76 2.25 -117.76 2.37 -117.77 2.52 -117.75 2.63 -117.76 2.79 -117.78 2.94 -117.76 3.1 -117.75 3.27 -117.76 3.45 -117.77 141.7 4.14 -3.45 117.55 -3.25 117.56 -3.1 117.57 -2.94 117.58 -2.79 117.58 -2.63 117.6 -2.5 117.61 -2.37 117.61 -2.25 117.62 -2.14 117.64 -2.04 117.63 -1.94 117.65 -1.85 117.66 -1.77 117.65 -1.69 117.67 -1.63 117.68 -1.57 117.68 -1.53 117.68 -1.49 117.69 -1.45 117.7 -1.44 117.7 -1.41 117.71 -1.41 117.72 -1.41 117.72 -1.42 117.72 -1.43 117.73 -1.46 117.73 -1.49 117.74 -1.53 117.74 -1.59 117.74 -1.64 117.75 -1.7 117.75 0 0zm-235.19 729.2l-117.06 -78.8 0 0.01 12.56 -18.46 12.16 -18.57 11.78 -18.7 11.4 -18.84 11.02 -18.94 10.63 -19.08 10.25 -19.2 9.86 -19.33 9.49 -19.46 9.09 -19.55 8.71 -19.7 8.33 -19.84 7.95 -19.94 7.56 -20.07 7.18 -20.19 6.79 -20.32 6.4 -20.44 6.02 -20.56 5.63 -20.7 5.25 -20.82 4.86 -20.94 4.46 -21.07 4.08 -21.2 3.69 -21.34 3.3 -21.44 2.9 -21.58 2.53 -21.71 2.11 -21.82 1.72 -21.98 1.34 -22.09 0.93 -22.21 0.53 -22.36 141.74 2.04 -0.59 24.82 -1.03 24.73 -1.48 24.59 -1.92 24.48 -2.37 24.38 -2.81 24.25 -3.24 24.12 -3.7 24 -4.13 23.86 -4.56 23.76 -5.02 23.61 -5.44 23.5 -5.89 23.34 -6.31 23.22 -6.76 23.08 -7.18 22.94 -7.63 22.8 -8.04 22.65 -8.48 22.51 -8.91 22.36 -9.33 22.2 -9.75 22.06 -10.19 21.93 -10.61 21.74 -11.02 21.59 -11.45 21.44 -11.85 21.28 -12.28 21.12 -12.68 20.94 -13.1 20.8 -13.52 20.63 -13.92 20.46 0 0.01zm-283.21 104.09l125.16 -65.62 -101.92 -25.29 6.24 -4.03 6.19 -3.85 6.21 -3.75 6.16 -3.6 6.07 -3.48 6.11 -3.42 5.94 -3.27 6 -3.28 11.45 -6.16 11.24 -6.06 5.33 -2.9 5.24 -2.88 5.08 -2.85 4.98 -2.84 4.82 -2.81 4.56 -2.73 4.39 -2.73 4.24 -2.72 4.01 -2.67 3.78 -2.63 3.53 -2.58 3.34 -2.56 3.07 -2.49 2.8 -2.42 2.6 -2.4 2.38 -2.34 2.12 -2.25 1.85 -2.12 1.67 -2.1 1.51 -2.06 117.06 78.8 -5.21 7.16 -5.45 6.84 -5.69 6.54 -5.8 6.15 -5.9 5.82 -6.02 5.54 -6.14 5.3 -6.17 5.01 -6.2 4.78 -6.25 4.56 -6.24 4.35 -6.25 4.17 -6.2 3.98 -6.25 3.87 -6.22 3.73 -6.12 3.57 -6.06 3.46 -6.06 3.39 -6 3.3 -5.95 3.24 -11.44 6.16 -11.21 6.04 -5.28 2.88 -5.28 2.91 -5.03 2.82 -4.95 2.84 -4.76 2.78 -4.55 2.75 -4.43 2.75 -4.18 2.69 -101.92 -25.29zm101.92 25.29l-65.14 42.83 -36.78 -68.12 101.92 25.29zm-196.48 -223.39l141.72 -3.68 0 0 0.08 1.35 0.18 1.6 0.29 1.76 0.44 2 0.62 2.32 0.82 2.61 0.99 2.8 1.18 2.97 1.43 3.27 1.66 3.53 1.83 3.63 2.06 3.85 2.26 4.04 2.43 4.16 2.63 4.33 2.77 4.43 2.95 4.59 3.11 4.73 3.21 4.82 3.28 4.87 7.03 10.33 7.15 10.5 3.79 5.62 3.7 5.6 3.74 5.71 3.74 5.88 3.73 5.99 3.68 6.13 3.64 6.28 3.58 6.46 -125.16 65.62 -2.2 -3.98 -2.4 -4.14 -2.58 -4.29 -2.75 -4.43 -2.9 -4.54 -3.06 -4.69 -3.2 -4.82 -3.21 -4.78 -7.01 -10.3 -7.13 -10.47 -3.74 -5.53 -3.73 -5.6 -3.71 -5.67 -3.75 -5.83 -3.75 -5.99 -3.69 -6.09 -3.67 -6.26 -3.58 -6.4 -3.52 -6.59 -3.41 -6.81 -3.26 -6.93 -3.13 -7.19 -2.98 -7.51 -2.73 -7.7 -2.46 -7.89 -2.18 -8.18 -1.86 -8.54 -1.45 -8.78 -1 -8.94 -0.52 -9.23 0 0zm-12.29 -1193.95l141.76 1.22 0 0 -0.3 37.15 -0.26 37.14 -0.2 37.14 -0.16 37.15 -0.1 37.14 -0.06 37.15 -0.01 37.16 0.03 37.15 0.09 37.16 0.12 37.15 0.18 37.16 0.21 37.17 0.26 37.14 0.31 37.17 0.34 37.17 0.39 37.14 0.43 37.17 0.47 37.16 0.5 37.17 0.55 37.16 0.59 37.16 0.63 37.17 0.66 37.16 0.7 37.17 0.74 37.16 0.78 37.16 0.8 37.16 0.84 37.17 0.88 37.16 0.92 37.16 0.94 37.17 0.98 37.15 -141.72 3.68 -0.98 -37.29 -0.94 -37.27 -0.92 -37.28 -0.88 -37.3 -0.84 -37.29 -0.82 -37.28 -0.78 -37.3 -0.74 -37.3 -0.7 -37.31 -0.66 -37.3 -0.63 -37.29 -0.59 -37.32 -0.55 -37.3 -0.52 -37.31 -0.47 -37.32 -0.43 -37.31 -0.39 -37.32 -0.34 -37.31 -0.31 -37.31 -0.26 -37.34 -0.21 -37.31 -0.18 -37.32 -0.12 -37.33 -0.09 -37.32 -0.03 -37.33 0.01 -37.32 0.06 -37.33 0.1 -37.32 0.16 -37.33 0.2 -37.34 0.26 -37.32 0.3 -37.33 0 0zm40.18 -2694.72l141.64 5.66 0 0 -3.33 83.86 -3.09 83.89 -2.88 83.9 -2.65 83.9 -2.46 83.94 -2.26 83.95 -2.09 83.97 -1.9 83.97 -1.74 84.01 -1.6 84.01 -1.45 84.02 -1.31 84.03 -1.18 84.04 -1.07 84.06 -0.97 84.09 -0.88 84.08 -0.79 84.1 -0.72 84.1 -0.65 84.12 -0.59 84.13 -0.55 84.13 -0.52 84.14 -0.49 84.15 -0.47 84.16 -0.47 84.17 -0.47 84.18 -0.49 84.19 -0.51 84.18 -0.54 84.19 -0.59 84.2 -0.64 84.21 -0.71 84.21 -141.76 -1.22 0.71 -84.09 0.64 -84.11 0.59 -84.12 0.54 -84.13 0.51 -84.14 0.49 -84.15 0.47 -84.16 0.47 -84.17 0.47 -84.18 0.49 -84.19 0.52 -84.2 0.55 -84.19 0.59 -84.21 0.65 -84.22 0.72 -84.22 0.79 -84.22 0.88 -84.24 0.97 -84.23 1.07 -84.24 1.2 -84.24 1.31 -84.25 1.45 -84.26 1.6 -84.25 1.74 -84.25 1.92 -84.27 2.09 -84.25 2.28 -84.25 2.46 -84.26 2.67 -84.26 2.88 -84.26 3.11 -84.25 3.35 -84.26 0 0zm185.37 -1673.83l138.14 31.42 0 -0.01 -11.41 49.93 -10.9 50.11 -10.4 50.26 -9.92 50.4 -9.44 50.56 -9 50.71 -8.55 50.83 -8.12 50.96 -7.72 51.09 -7.31 51.2 -6.94 51.31 -6.56 51.41 -6.21 51.5 -5.86 51.59 -5.54 51.68 -5.23 51.75 -4.92 51.81 -4.64 51.88 -4.37 51.94 -4.12 51.98 -3.87 52.02 -3.65 52.06 -3.43 52.09 -3.24 52.12 -3.06 52.12 -2.88 52.14 -2.73 52.14 -2.59 52.14 -2.47 52.11 -2.36 52.11 -2.25 52.08 -2.18 52.05 -141.64 -5.66 2.18 -52.25 2.27 -52.3 2.36 -52.39 2.49 -52.43 2.61 -52.48 2.75 -52.52 2.9 -52.56 3.08 -52.6 3.28 -52.62 3.47 -52.63 3.69 -52.64 3.91 -52.64 4.18 -52.66 4.43 -52.62 4.7 -52.62 5 -52.61 5.31 -52.57 5.62 -52.54 5.98 -52.49 6.31 -52.44 6.7 -52.39 7.06 -52.33 7.47 -52.26 7.88 -52.19 8.3 -52.1 8.77 -52.03 9.2 -51.91 9.68 -51.84 10.18 -51.72 10.68 -51.6 11.2 -51.49 11.73 -51.35 0 -0.01zm2135.88 -2077.77l30.22 136.48 0.05 -0.01 -102.16 23.6 -99.62 26.15 -97.1 28.7 -94.58 31.21 -92.04 33.73 -89.52 36.23 -87.01 38.71 -84.47 41.18 -81.98 43.63 -79.46 46.08 -76.96 48.52 -74.46 50.95 -71.97 53.37 -69.48 55.78 -67.01 58.19 -64.53 60.61 -62.06 63 -59.59 65.42 -57.12 67.81 -54.66 70.22 -52.18 72.61 -49.72 75.02 -47.26 77.42 -44.78 79.82 -42.29 82.22 -39.81 84.62 -37.32 87.03 -34.82 89.4 -32.3 91.8 -29.78 94.18 -27.25 96.57 -24.72 98.94 -138.14 -31.42 25.72 -102.92 28.41 -100.65 31.1 -98.36 33.8 -96.04 36.5 -93.72 39.18 -91.37 41.87 -89.02 44.57 -86.64 47.26 -84.24 49.94 -81.82 52.62 -79.4 55.3 -76.93 57.96 -74.46 60.62 -71.97 63.27 -69.44 65.9 -66.92 68.53 -64.35 71.13 -61.79 73.74 -59.2 76.31 -56.59 78.9 -53.97 81.42 -51.34 83.98 -48.7 86.5 -46.05 89.01 -43.38 91.51 -40.71 93.98 -38.03 96.46 -35.35 98.92 -32.65 101.36 -29.96 103.82 -27.25 106.24 -24.54 0.05 -0.01zm402.09 -13.2l0.24 139.7 0.01 0 -12.62 -0.02 -12.63 -0.1 -12.56 -0.19 -12.49 -0.24 -12.48 -0.28 -12.43 -0.33 -12.35 -0.35 -12.3 -0.36 -12.28 -0.37 -12.2 -0.37 -12.14 -0.35 -12.07 -0.32 -12.02 -0.29 -11.94 -0.24 -11.88 -0.19 -11.78 -0.12 -11.7 -0.04 -11.65 0.04 -11.54 0.13 -11.45 0.24 -11.41 0.34 -11.27 0.46 -11.14 0.59 -11.06 0.73 -10.98 0.88 -10.89 1.02 -10.74 1.18 -10.66 1.35 -10.53 1.52 -10.42 1.7 -10.31 1.88 -10.2 2.08 -30.22 -136.48 13.1 -2.68 13.11 -2.4 13.1 -2.14 13.09 -1.88 13.04 -1.65 13.06 -1.44 13.01 -1.22 12.98 -1.04 12.98 -0.85 12.96 -0.69 12.89 -0.52 12.83 -0.4 12.83 -0.26 12.78 -0.15 12.71 -0.04 12.7 0.04 12.66 0.14 12.58 0.19 12.54 0.26 12.48 0.29 12.43 0.34 12.36 0.35 12.32 0.37 12.22 0.37 12.2 0.36 12.11 0.35 12.03 0.31 11.94 0.28 11.91 0.22 11.8 0.17 11.69 0.1 11.64 0.02 0.01 0zm2554.76 312.67l-32.2 136.04 0.01 0.01 -77.92 -17.68 -77.96 -17.26 -78.02 -16.81 -78.06 -16.37 -78.12 -15.92 -78.18 -15.45 -78.22 -14.99 -78.28 -14.5 -78.33 -14.01 -78.39 -13.52 -78.45 -13 -78.5 -12.49 -78.56 -11.95 -78.63 -11.43 -78.68 -10.88 -78.75 -10.33 -78.81 -9.75 -78.88 -9.2 -78.94 -8.61 -79 -8.02 -79.07 -7.42 -79.14 -6.8 -79.22 -6.2 -79.29 -5.57 -79.35 -4.92 -79.43 -4.29 -79.5 -3.63 -79.57 -2.97 -79.65 -2.29 -79.73 -1.61 -79.82 -0.92 -79.88 -0.23 -0.24 -139.7 81.16 0.23 81.06 0.94 80.97 1.63 80.87 2.33 80.79 3.01 80.7 3.69 80.61 4.35 80.51 5 80.43 5.65 80.34 6.28 80.26 6.9 80.17 7.52 80.08 8.14 80 8.71 79.92 9.32 79.83 9.89 79.77 10.45 79.68 11.02 79.59 11.57 79.52 12.11 79.44 12.63 79.37 13.16 79.29 13.66 79.21 14.17 79.14 14.66 79.08 15.15 79 15.63 78.92 16.08 78.86 16.53 78.8 16.99 78.72 17.42 78.66 17.84 0.01 0.01zm3005.04 698.22l-32.48 135.98 0.01 0 -93.93 -21.78 -93.91 -21.81 -93.92 -21.82 -93.9 -21.84 -93.91 -21.84 -93.9 -21.86 -93.9 -21.87 -93.89 -21.87 -187.79 -43.78 -187.77 -43.78 -187.77 -43.79 -187.77 -43.77 -93.88 -21.87 -93.88 -21.88 -93.9 -21.86 -93.88 -21.86 -93.89 -21.84 -93.89 -21.83 -93.89 -21.81 -93.9 -21.8 -93.89 -21.78 -93.91 -21.75 -93.9 -21.74 -93.92 -21.72 -93.91 -21.69 -93.91 -21.67 -93.94 -21.63 -93.92 -21.62 32.2 -136.04 93.98 21.62 93.96 21.65 93.97 21.67 93.95 21.71 93.94 21.72 93.94 21.74 93.93 21.77 93.93 21.78 93.92 21.8 93.91 21.83 93.91 21.83 93.91 21.84 93.9 21.86 93.9 21.86 93.9 21.88 93.9 21.89 187.77 43.77 187.77 43.79 187.77 43.78 187.77 43.76 93.89 21.87 93.88 21.87 93.88 21.86 93.89 21.84 93.88 21.84 93.9 21.8 93.89 21.81 93.89 21.78 0.01 0zm4573.42 1059.6l-32.84 135.9 0.01 0 -142.8 -33.45 -142.81 -33.42 -142.83 -33.37 -142.84 -33.33 -142.85 -33.28 -142.87 -33.26 -142.87 -33.21 -142.87 -33.18 -142.89 -33.16 -142.9 -33.13 -142.89 -33.1 -142.92 -33.08 -142.92 -33.07 -142.92 -33.04 -142.92 -33.02 -142.93 -33.02 -142.94 -33 -142.94 -33 -142.94 -32.99 -142.94 -32.98 -285.89 -65.97 -285.9 -65.99 -142.94 -33 -142.95 -33.01 -142.94 -33.04 -142.93 -33.04 -142.94 -33.06 -142.93 -33.08 -142.93 -33.1 -142.93 -33.14 32.48 -135.98 142.89 33.12 142.91 33.1 142.91 33.08 142.92 33.06 142.93 33.04 142.92 33.02 142.93 33.01 142.94 33 285.88 65.99 285.89 65.97 142.94 32.98 142.96 32.99 142.94 33 142.94 33 142.95 33.02 142.94 33.04 142.94 33.04 142.92 33.07 142.94 33.08 142.93 33.12 142.92 33.13 142.91 33.16 142.91 33.18 142.91 33.23 142.89 33.26 142.89 33.3 142.88 33.33 142.87 33.39 142.85 33.42 142.86 33.47 0.01 0zm3900.71 929.32l-33.12 135.84 -0.02 -0.01 -121.94 -28.92 -121.94 -28.98 -121.92 -29 -121.92 -29.05 -121.91 -29.06 -121.89 -29.09 -121.89 -29.13 -121.88 -29.14 -121.88 -29.15 -121.86 -29.17 -121.87 -29.19 -121.85 -29.18 -243.71 -58.38 -243.71 -58.38 -121.85 -29.16 -121.85 -29.16 -121.86 -29.15 -121.86 -29.13 -121.86 -29.1 -121.87 -29.08 -121.86 -29.05 -121.89 -29.01 -121.89 -28.99 -121.88 -28.94 -121.91 -28.89 -121.9 -28.87 -121.92 -28.8 -121.93 -28.75 -121.95 -28.71 -121.96 -28.64 32.84 -135.9 122.02 28.66 122.01 28.71 121.99 28.77 121.98 28.82 121.96 28.87 121.95 28.91 121.94 28.96 121.93 28.99 121.91 29.03 121.9 29.05 121.91 29.08 121.88 29.12 121.88 29.13 121.88 29.15 121.87 29.16 121.87 29.18 243.71 58.38 243.71 58.38 121.85 29.18 121.85 29.17 121.86 29.17 121.86 29.15 121.86 29.14 121.85 29.11 121.87 29.09 121.87 29.06 121.88 29.03 121.88 29 121.9 28.96 121.9 28.92 -0.02 -0.01zm1829.79 423.66l-33.8 135.66 -0.01 0 -56.93 -13.73 -56.97 -13.66 -56.99 -13.58 -57.02 -13.51 -57.02 -13.44 -57.07 -13.37 -57.07 -13.32 -57.09 -13.27 -57.13 -13.21 -57.13 -13.18 -57.14 -13.14 -57.17 -13.1 -57.17 -13.09 -57.19 -13.05 -57.2 -13.03 -57.21 -13.03 -114.45 -26.04 -114.45 -26.04 -57.24 -13.04 -57.24 -13.05 -57.24 -13.08 -57.24 -13.11 -57.23 -13.14 -57.24 -13.17 -57.23 -13.22 -57.21 -13.25 -57.23 -13.32 -57.21 -13.38 -57.19 -13.43 -57.2 -13.5 33.12 -135.84 57.02 13.46 57.05 13.41 57.07 13.34 57.07 13.28 57.11 13.23 57.13 13.2 57.14 13.15 57.15 13.12 57.18 13.09 57.18 13.06 57.18 13.05 57.2 13.02 114.45 26.04 114.45 26.04 57.23 13.03 57.24 13.05 57.25 13.07 57.23 13.09 57.25 13.12 57.24 13.16 57.23 13.2 57.23 13.25 57.23 13.29 57.21 13.36 57.21 13.41 57.2 13.48 57.18 13.55 57.19 13.62 57.15 13.7 57.15 13.79 -0.01 0zm2109.14 526.29l-33.72 135.68 0 0 -66.13 -16.01 -66.1 -16.09 -66.08 -16.17 -66.05 -16.25 -66.01 -16.32 -66.01 -16.37 -65.98 -16.45 -65.96 -16.48 -65.95 -16.53 -65.92 -16.57 -65.92 -16.61 -65.89 -16.64 -65.88 -16.65 -65.88 -16.68 -65.86 -16.68 -65.86 -16.69 -65.84 -16.69 -65.86 -16.69 -65.83 -16.68 -65.84 -16.65 -65.83 -16.62 -65.85 -16.61 -65.83 -16.57 -65.84 -16.53 -65.84 -16.47 -65.86 -16.44 -65.86 -16.36 -65.87 -16.32 -65.88 -16.24 -65.89 -16.16 -65.91 -16.09 -65.91 -16 33.8 -135.66 66.11 16.04 66.07 16.13 66.05 16.2 66.04 16.28 65.99 16.34 66 16.4 65.96 16.46 65.94 16.51 65.94 16.55 65.91 16.59 65.89 16.61 65.89 16.64 65.88 16.67 65.87 16.68 65.86 16.69 65.86 16.69 65.84 16.69 65.84 16.68 65.84 16.66 65.84 16.65 65.85 16.62 65.84 16.59 65.84 16.55 65.85 16.51 65.86 16.46 65.86 16.41 65.87 16.35 65.89 16.28 65.89 16.21 65.9 16.13 65.94 16.05 65.93 15.97 0 0zm2147.06 501.04l-33.6 135.72 0 0 -66.91 -16.04 -66.95 -15.96 -66.96 -15.88 -66.99 -15.81 -67 -15.76 -67.04 -15.69 -67.04 -15.64 -67.06 -15.59 -67.09 -15.55 -67.1 -15.52 -67.1 -15.49 -67.13 -15.46 -67.13 -15.45 -67.14 -15.42 -67.14 -15.43 -67.16 -15.42 -67.15 -15.42 -67.16 -15.44 -67.17 -15.44 -67.16 -15.47 -67.17 -15.49 -67.16 -15.52 -67.17 -15.56 -67.16 -15.61 -67.15 -15.64 -67.14 -15.71 -67.15 -15.76 -67.12 -15.84 -67.11 -15.89 -67.11 -15.97 -67.09 -16.06 -67.07 -16.15 33.72 -135.68 66.89 16.09 66.93 16.02 66.93 15.93 66.97 15.87 67 15.8 67.01 15.74 67.02 15.67 67.05 15.62 67.08 15.59 67.07 15.54 67.1 15.5 67.11 15.49 67.12 15.45 67.13 15.44 67.14 15.42 67.15 15.42 67.16 15.42 67.16 15.43 67.16 15.44 67.17 15.45 67.17 15.48 67.16 15.49 67.16 15.54 67.17 15.57 67.16 15.61 67.16 15.68 67.14 15.71 67.14 15.78 67.13 15.85 67.12 15.92 67.11 16 67.09 16.08 0 0zm2648.08 649.14l-33.46 135.76 0 0 -82.93 -19.9 -82.9 -19.96 -82.88 -20.04 -82.87 -20.09 -82.84 -20.16 -82.82 -20.21 -82.8 -20.26 -82.79 -20.3 -82.77 -20.35 -82.77 -20.39 -82.74 -20.4 -82.74 -20.44 -82.73 -20.46 -82.72 -20.48 -82.71 -20.48 -82.7 -20.49 -82.7 -20.49 -82.7 -20.49 -82.7 -20.48 -82.69 -20.46 -82.7 -20.46 -82.69 -20.42 -82.71 -20.4 -82.7 -20.37 -82.71 -20.33 -82.71 -20.28 -82.72 -20.25 -82.73 -20.19 -82.75 -20.13 -82.76 -20.08 -82.76 -20 -82.78 -19.94 33.6 -135.72 82.9 19.96 82.88 20.04 82.86 20.1 82.83 20.15 82.83 20.21 82.8 20.27 82.79 20.3 82.77 20.35 82.76 20.39 82.75 20.4 82.73 20.44 82.74 20.46 82.71 20.48 82.72 20.48 82.7 20.49 82.7 20.49 82.7 20.49 82.69 20.48 82.7 20.46 82.69 20.46 82.7 20.42 82.7 20.4 82.71 20.37 82.71 20.33 82.71 20.28 82.72 20.24 82.74 20.19 82.74 20.14 82.75 20.07 82.78 20 82.78 19.94 82.79 19.86 0 0zm2872.97 676.19l-33.84 135.66 -0.01 0 -89.56 -21.66 -89.59 -21.58 -89.62 -21.48 -89.63 -21.41 -89.66 -21.34 -89.69 -21.26 -89.7 -21.21 -89.72 -21.15 -89.74 -21.1 -89.77 -21.06 -89.77 -21.02 -89.78 -20.97 -89.8 -20.96 -89.81 -20.92 -89.81 -20.92 -89.83 -20.9 -179.67 -41.78 -179.68 -41.79 -89.85 -20.92 -89.83 -20.94 -89.85 -20.96 -89.83 -21 -89.83 -21.04 -89.83 -21.07 -89.81 -21.12 -89.82 -21.18 -89.79 -21.23 -89.79 -21.31 -89.76 -21.37 -89.76 -21.44 33.46 -135.76 89.64 21.42 89.66 21.35 89.67 21.27 89.71 21.21 89.72 21.16 89.75 21.1 89.75 21.07 89.77 21.02 89.79 20.98 89.79 20.96 89.81 20.92 89.81 20.92 179.66 41.79 179.67 41.78 89.85 20.9 89.85 20.92 89.83 20.94 89.84 20.96 89.84 20.99 89.83 21.04 89.83 21.06 89.82 21.12 89.8 21.17 89.8 21.23 89.79 21.3 89.78 21.36 89.75 21.43 89.74 21.52 89.73 21.6 89.7 21.7 -0.01 0zm582.97 222.24l-64.58 124.36 0 0 -16.57 -8.3 -16.65 -8.23 -16.69 -8.15 -16.76 -8.06 -16.82 -7.98 -16.84 -7.88 -16.92 -7.79 -16.97 -7.7 -17.03 -7.59 -17.06 -7.5 -17.1 -7.37 -17.16 -7.27 -17.2 -7.16 -17.23 -7.04 -17.28 -6.92 -17.32 -6.8 -17.34 -6.66 -17.36 -6.53 -17.43 -6.4 -17.46 -6.27 -17.46 -6.13 -17.49 -5.98 -17.53 -5.83 -17.55 -5.7 -17.57 -5.53 -17.59 -5.38 -17.6 -5.21 -17.63 -5.06 -17.63 -4.88 -17.65 -4.72 -17.67 -4.54 -17.67 -4.38 33.84 -135.66 19.01 4.7 18.95 4.88 18.93 5.06 18.89 5.24 18.83 5.4 18.82 5.57 18.75 5.74 18.71 5.89 18.65 6.04 18.61 6.19 18.59 6.36 18.52 6.49 18.44 6.63 18.41 6.76 18.38 6.91 18.3 7.04 18.24 7.16 18.18 7.28 18.13 7.4 18.06 7.52 18 7.63 17.96 7.75 17.86 7.84 17.81 7.95 17.73 8.04 17.68 8.13 17.62 8.24 17.52 8.32 17.46 8.4 17.39 8.49 17.29 8.55 17.25 8.64 0 0zm24.62 628.9l-66.78 -123.24 0 0.01 21.95 -12.15 20.13 -12.34 18.37 -12.5 16.58 -12.57 14.86 -12.59 13.15 -12.54 11.49 -12.43 9.86 -12.22 8.31 -11.97 6.85 -11.71 5.49 -11.41 4.21 -11.1 3.05 -10.84 1.95 -10.65 0.91 -10.52 -0.08 -10.53 -1.08 -10.61 -2.14 -10.81 -3.24 -11.07 -4.43 -11.38 -5.71 -11.72 -7.05 -12.01 -8.5 -12.28 -9.98 -12.52 -11.53 -12.68 -13.12 -12.8 -14.71 -12.83 -16.34 -12.8 -17.96 -12.72 -19.6 -12.56 -21.24 -12.36 -22.87 -12.09 64.58 -124.36 27.81 14.71 26.36 15.34 24.92 15.96 23.44 16.6 21.98 17.22 20.47 17.87 18.94 18.48 17.39 19.14 15.8 19.8 14.12 20.46 12.39 21.09 10.57 21.7 8.67 22.28 6.66 22.79 4.56 23.17 2.4 23.45 0.18 23.53 -2.05 23.5 -4.27 23.29 -6.41 22.92 -8.51 22.44 -10.51 21.85 -12.41 21.21 -14.25 20.55 -16 19.84 -17.69 19.13 -19.33 18.44 -20.94 17.77 -22.56 17.09 -24.13 16.42 -25.71 15.76 -27.27 15.09 0 0.01zm-1182.42 540.15l-52.76 -129.66 0 0 37.34 -14.82 37.29 -14.93 37.26 -15.06 37.21 -15.16 37.16 -15.3 37.14 -15.4 37.07 -15.52 37.04 -15.65 36.99 -15.77 36.93 -15.88 36.88 -16.01 36.83 -16.13 36.79 -16.24 36.72 -16.37 36.66 -16.48 36.61 -16.61 36.54 -16.73 36.49 -16.85 36.41 -16.97 36.36 -17.1 36.29 -17.21 36.21 -17.34 36.16 -17.47 36.08 -17.59 36.02 -17.71 35.92 -17.82 35.87 -17.96 35.79 -18.08 35.7 -18.2 35.63 -18.33 35.54 -18.46 35.47 -18.58 66.78 123.24 -35.93 18.82 -36.02 18.7 -36.09 18.57 -36.18 18.44 -36.25 18.3 -36.31 18.2 -36.4 18.06 -36.46 17.93 -36.54 17.81 -36.6 17.67 -36.67 17.56 -36.75 17.43 -36.78 17.3 -36.87 17.19 -36.93 17.05 -36.98 16.93 -37.05 16.81 -37.1 16.68 -37.14 16.55 -37.21 16.44 -37.25 16.31 -37.32 16.19 -37.37 16.08 -37.41 15.93 -37.44 15.83 -37.51 15.7 -37.54 15.58 -37.58 15.46 -37.63 15.34 -37.66 15.22 -37.71 15.09 -37.74 14.98 0 0zm-4409.7 1485.2l-41.08 -133.7 0 0 139.14 -41.62 139.09 -41.78 139.03 -41.97 138.96 -42.16 138.88 -42.37 138.8 -42.59 138.71 -42.83 138.62 -43.08 138.52 -43.33 138.42 -43.62 138.33 -43.89 138.2 -44.2 138.09 -44.52 137.97 -44.85 137.85 -45.18 137.72 -45.54 137.57 -45.91 137.45 -46.28 137.29 -46.69 137.14 -47.08 136.99 -47.52 136.83 -47.94 136.67 -48.4 136.5 -48.84 136.31 -49.33 136.14 -49.81 135.95 -50.31 135.77 -50.83 135.58 -51.35 135.37 -51.89 135.16 -52.44 134.97 -53.01 52.76 129.66 -135.51 53.23 -135.72 52.66 -135.91 52.09 -136.1 51.55 -136.27 51.01 -136.45 50.51 -136.64 49.99 -136.79 49.49 -136.96 49.02 -137.11 48.54 -137.27 48.1 -137.41 47.66 -137.56 47.24 -137.69 46.81 -137.83 46.42 -137.95 46.03 -138.08 45.66 -138.19 45.3 -138.31 44.95 -138.41 44.62 -138.52 44.3 -138.61 43.99 -138.7 43.7 -138.8 43.43 -138.88 43.16 -138.95 42.89 -139.02 42.67 -139.1 42.43 -139.16 42.22 -139.21 42.03 -139.27 41.84 -139.32 41.66 0 0zm-2898.5 822.92l-35.28 -135.3 0 0 90.94 -23.16 90.9 -23.41 90.83 -23.64 90.8 -23.87 90.73 -24.08 90.7 -24.3 90.65 -24.5 90.61 -24.69 90.57 -24.89 90.52 -25.05 90.49 -25.23 90.45 -25.39 90.42 -25.55 90.4 -25.69 90.36 -25.82 90.33 -25.96 90.31 -26.07 90.27 -26.19 90.26 -26.29 90.24 -26.39 90.22 -26.48 90.21 -26.55 90.18 -26.62 90.17 -26.7 90.17 -26.74 90.15 -26.79 90.14 -26.83 90.15 -26.87 90.13 -26.87 90.14 -26.9 90.12 -26.9 90.14 -26.9 41.08 133.7 -90.12 26.9 -90.14 26.9 -90.14 26.9 -90.17 26.89 -90.17 26.87 -90.2 26.85 -90.23 26.81 -90.23 26.76 -90.25 26.72 -90.3 26.66 -90.31 26.59 -90.34 26.5 -90.38 26.43 -90.4 26.35 -90.45 26.23 -90.49 26.13 -90.51 26 -90.56 25.88 -90.6 25.75 -90.64 25.61 -90.69 25.45 -90.75 25.31 -90.78 25.13 -90.85 24.95 -90.89 24.77 -90.95 24.58 -91 24.38 -91.07 24.18 -91.12 23.95 -91.19 23.74 -91.26 23.49 -91.32 23.26 0 0zm-2985.6 663.26l-28.3 -136.88 0 0 93.53 -18.82 93.54 -18.9 93.51 -18.97 93.49 -19.06 93.49 -19.13 93.46 -19.23 93.43 -19.32 93.42 -19.44 93.39 -19.53 93.37 -19.64 93.34 -19.75 93.31 -19.88 93.28 -20 93.24 -20.13 93.22 -20.27 93.17 -20.4 93.14 -20.55 93.1 -20.7 93.04 -20.84 93.01 -21.01 92.97 -21.16 92.92 -21.34 92.87 -21.51 92.82 -21.68 92.77 -21.87 92.72 -22.05 92.66 -22.25 92.6 -22.44 92.54 -22.64 92.49 -22.84 92.42 -23.06 92.36 -23.27 35.28 135.3 -92.68 23.35 -92.76 23.14 -92.79 22.92 -92.86 22.72 -92.9 22.52 -92.96 22.31 -93 22.13 -93.05 21.93 -93.1 21.74 -93.13 21.57 -93.18 21.4 -93.21 21.22 -93.25 21.07 -93.3 20.9 -93.32 20.74 -93.36 20.59 -93.39 20.46 -93.42 20.31 -93.44 20.17 -93.48 20.04 -93.49 19.92 -93.52 19.79 -93.53 19.68 -93.55 19.57 -93.58 19.46 -93.59 19.36 -93.6 19.25 -93.61 19.17 -93.63 19.08 -93.63 18.99 -93.64 18.92 -93.65 18.84 0 0zm-1222.54 121.02l-12.06 -139.2 0.04 0 38.32 -3.12 38.34 -2.98 38.33 -2.85 38.32 -2.74 38.3 -2.65 38.3 -2.58 38.27 -2.53 38.24 -2.48 38.21 -2.48 38.19 -2.47 38.15 -2.49 38.09 -2.54 38.06 -2.6 38.03 -2.67 37.94 -2.75 37.9 -2.88 37.85 -3 37.76 -3.16 37.7 -3.32 37.63 -3.5 37.54 -3.71 37.47 -3.93 37.4 -4.17 37.29 -4.42 37.2 -4.69 37.1 -4.99 37 -5.29 36.88 -5.62 36.78 -5.96 36.68 -6.33 36.55 -6.7 36.44 -7.1 28.3 136.88 -38.02 7.42 -38.09 6.98 -38.12 6.57 -38.18 6.2 -38.22 5.82 -38.24 5.47 -38.28 5.15 -38.32 4.83 -38.33 4.54 -38.34 4.27 -38.37 4.03 -38.38 3.79 -38.39 3.58 -38.38 3.38 -38.4 3.2 -38.37 3.04 -38.38 2.92 -38.36 2.79 -38.33 2.69 -38.32 2.62 -38.31 2.54 -38.27 2.51 -38.23 2.47 -38.19 2.48 -38.16 2.48 -38.11 2.51 -38.06 2.56 -38 2.63 -37.96 2.72 -37.89 2.81 -37.82 2.94 -37.76 3.08 0.04 0zm-269.05 -92.77l140.7 -17.08 -57.81 -60.21 6.9 1.27 6.8 1.33 6.76 1.4 6.64 1.44 6.54 1.47 6.44 1.48 6.37 1.51 6.36 1.53 12.22 2.98 12.08 2.96 5.77 1.39 5.79 1.38 5.68 1.32 5.52 1.25 5.47 1.18 5.43 1.14 5.27 1.04 5.13 0.96 5.08 0.87 4.94 0.78 4.87 0.69 4.72 0.59 4.53 0.48 4.51 0.37 4.35 0.28 4.21 0.17 4.13 0.06 3.99 -0.05 3.84 -0.14 3.76 -0.27 12.06 139.2 -8.04 0.55 -7.98 0.32 -7.87 0.09 -7.75 -0.12 -7.71 -0.29 -7.57 -0.48 -7.45 -0.63 -7.45 -0.78 -7.28 -0.91 -7.15 -1.01 -7.1 -1.12 -6.98 -1.21 -6.93 -1.28 -6.81 -1.36 -6.65 -1.38 -6.63 -1.44 -6.6 -1.49 -6.44 -1.5 -6.33 -1.5 -6.35 -1.53 -12.18 -2.98 -12.04 -2.94 -5.76 -1.39 -5.75 -1.35 -5.66 -1.32 -5.58 -1.25 -5.44 -1.18 -5.34 -1.1 -5.26 -1.03 -5.16 -0.95 -57.81 -60.21zm57.81 60.21l-51.42 -9.11 -6.39 -51.1 57.81 60.21zm-17.76 -193.53l46.16 132.08 47.27 -74.58 0.47 3.76 0.45 3.67 0.46 3.69 0.46 3.76 0.45 3.67 0.45 3.68 0.46 3.75 0.44 3.68 0.44 3.59 0.45 3.66 0.45 3.66 0.45 3.66 0.45 3.68 0.45 3.66 0.44 3.56 0.45 3.61 -140.7 17.08 -0.47 -3.71 -0.46 -3.76 -0.45 -3.68 -0.45 -3.66 -0.45 -3.66 -0.45 -3.68 -0.45 -3.68 -0.46 -3.77 -0.44 -3.66 -0.44 -3.59 -0.45 -3.68 -0.45 -3.67 -0.44 -3.6 -0.46 -3.67 -0.45 -3.67 -0.45 -3.6 47.27 -74.58zm-47.27 74.58l-7.02 -56.16 54.29 -18.42 -47.27 74.58z"/>
  </g>
  <path class="fil0 str0" d="M8014.83 33636.46c0,-225.59 -4.47,-430.59 4.92,-634.88 1.37,-29.99 66.67,-78.14 105.62,-81.64 121.7,-10.8 244.95,-4.28 367.59,-4.28 10126.03,-0.12 20252.16,-0.21 30378.19,-0.21 108.02,0 216.03,3.41 323.82,-0.7 89.01,-3.4 125.64,37.21 124.71,122.05 -1.62,166.68 3.25,333.74 -7.65,499.83 -2.32,34.81 -57.95,89.54 -94.34,94.13 -101.53,12.91 -205.61,4.22 -308.53,4.22 -10101.53,0.49 -20203.03,1 -30304.6,1.48 -185.97,0 -371.92,0 -589.73,0z"/>
  <path class="fil0 str0" d="M25829.71 29323.56c4.11,-75.04 9.41,-125.87 9.41,-176.8 0.4,-1015.15 4.2,-2030.39 -2.89,-3045.53 -1.9,-258.44 -24.92,-518.75 -63.93,-774.27 -47.13,-308.04 -148.38,-600.66 -370.58,-833.97 -298.63,-313.53 -729.71,-322.55 -1025.65,-9.9 -350.25,370.17 -463,845.17 -471.21,1326.69 -21.72,1274.56 -17.82,2549.95 -2.11,3824.71 4.92,392.77 102.64,776.65 356.07,1100.69 305.42,390.76 872.08,398.88 1187.52,19 92.74,-111.75 109.96,-211.19 37.83,-345.66 -147.98,-276 -277.54,-561.93 -417.29,-842.57 -54.03,-108.55 -36.72,-186.48 78.02,-238.8 98.06,-44.71 194.69,-92.74 290.45,-142.17 195.87,-101.15 201.57,-99.95 320.63,80.23 11.4,17.23 33.61,27.22 73.73,58.35zm-2640.88 -1345.91c0,-598.46 -4.38,-1197.04 1.11,-1795.41 6.4,-686.11 147.66,-1332.99 577.35,-1891.84 424.19,-551.64 1144.91,-774.64 1790.61,-525.73 473.9,182.68 771.74,556.05 982.54,1004.74 214.78,457.6 287.13,945.73 289.03,1444.86 4.38,1177.2 4.59,2354.54 0.69,3531.86 -1.29,398.19 -56.72,789.65 -172.69,1173.84 -25.4,84.12 11.11,199.49 48.94,287.61 90.54,211.2 196.59,415.79 300.92,620.79 50.74,99.44 25.52,175.08 -65.93,221.49 -135.04,68.54 -276.02,125.26 -414.27,187.29 -82.84,37.11 -141.07,13.1 -179.9,-68.24 -37.99,-79.63 -82.34,-156.35 -117.43,-237.2 -45.62,-105.15 -94.64,-106.14 -189.89,-43.72 -186.09,122.16 -372.67,263.02 -580.27,329.25 -655.88,209.39 -1279.56,-9.9 -1705.96,-562.74 -390.95,-506.93 -541.53,-1096 -557.64,-1719.78 -16.9,-651.98 -3.8,-1304.69 -3.8,-1957.07 -1.21,0 -2.3,0 -3.41,0z"/>
  <path class="fil0 str0" d="M10640.83 29370.26c5.82,-67.73 11.85,-104.84 11.78,-141.95 -1.28,-1152.03 3.31,-2304.03 -8.95,-3455.94 -3.59,-337.76 -61.2,-673.8 -217.15,-982.74 -130.79,-259.11 -307.31,-467.31 -609.54,-527.05 -323.52,-63.91 -613.44,99.26 -811.45,452.61 -206.34,368.36 -293.45,771.95 -298.85,1185.73 -14.57,1117.49 -13.51,2235.31 -12.1,3352.91 0.51,412.47 39.36,820.34 207.15,1206.92 124.55,286.94 315.53,501.43 627.55,565.75 292.12,60.22 536.84,-41.4 732.31,-272.41 95.76,-113.16 109.88,-216.6 41.46,-347.65 -115.56,-221.3 -214.44,-451.41 -330.93,-672.2 -189.63,-359.46 -157.1,-325.96 182.74,-498.84 277.48,-141.05 279.14,-137.76 485.98,134.86zm-2639.13 -1386.81c0,-603.36 -6.03,-1206.74 1.71,-1810 7.6,-591.37 113.85,-1161.62 431.49,-1673.76 314.8,-507.53 764.57,-820.55 1367.62,-842.06 357.73,-12.71 692.72,113.05 976.44,348.16 393.64,326.24 631.03,751.22 740.42,1240.34 70.1,313.33 119.49,638.2 123.34,958.43 14.26,1186.91 9.55,2374.06 3.62,3561.09 -1.93,387.87 -55.38,770.73 -174.67,1143.61 -22.32,69.84 -10.2,165.67 20.03,234.49 100.37,228.62 212.63,452.22 327.86,673.91 51.2,98.54 40.26,168.68 -58.48,218.5 -131.11,66.22 -264.65,127.47 -395.89,193.3 -102.32,51.32 -168.15,14.09 -214.14,-80.46 -25.76,-52.92 -52.44,-105.33 -77.75,-158.46 -95.55,-200.39 -97.49,-200.39 -262.23,-60.64 -322.07,273.34 -695.74,399.39 -1115.58,365.48 -568.21,-45.92 -967.91,-363.46 -1259.86,-828.87 -322.9,-514.65 -425.15,-1091.6 -432.34,-1687.86 -7.22,-598.37 -1.59,-1196.83 -1.59,-1795.2z"/>
  <path class="fil0 str0" d="M14673.86 25908.02c-40.75,55.63 -63.4,74.34 -70.03,97.65 -28.04,98.73 -49.51,199.19 -76.6,298.24 -138.25,504.52 -276.43,1009.05 -417.34,1512.87 -27.49,98.24 -14.02,150.28 103.36,143.86 107.28,-5.8 215.67,-6.79 322.64,1.69 125.25,10.01 159.76,-44.81 158.79,-162.26 -4.66,-562.56 -2.92,-1125.21 -4.66,-1687.86 -0.16,-55.12 -8.44,-110.15 -16.16,-204.19zm-1288.35 2670.6c-40.21,-4.41 -68.84,-9.6 -97.61,-10.5 -281.64,-9.32 -281.64,-9.11 -281.22,-284.45 0.56,-334.62 0.56,-334.62 332.29,-331.24 233.72,2.41 229.39,1.21 290.61,-228.9 328.99,-1236.66 660.33,-2472.6 990.85,-3708.86 16.48,-61.52 39.92,-122.25 47.75,-184.98 23.55,-187.96 17.81,-226.09 277.42,-223.68 294.25,2.68 588.64,5.49 882.81,0.9 127.52,-1.9 180.25,53.61 177.22,174.96 -0.61,24.53 0.09,49.03 0.09,73.65 -0.07,2722.4 -0.12,5444.93 -0.25,8167.42 0,39.32 1.27,78.66 -1.51,117.76 -6.07,85.35 -43.95,132.96 -138.99,132.26 -343.37,-2.8 -686.75,-3.1 -1030.12,-0.2 -144.95,1.32 -150.42,-91.75 -150.33,-197.38 0.58,-755.44 0,-1510.88 0.28,-2266.32 0.12,-353.15 -4.61,-706.5 4.8,-1059.46 3.89,-145.97 -50.72,-192.4 -189.06,-184.38 -141.77,8.3 -284.76,7.9 -426.56,-0.42 -114.3,-6.58 -164.64,38.13 -193.78,148.17 -208.2,786.36 -422.25,1571.22 -634.21,2356.65 -97.1,359.78 -192.48,719.93 -291.02,1079.28 -37.88,138.27 -386.81,231.02 -478.09,120.96 -31.02,-37.32 -26.4,-121.16 -11.85,-176.89 173.58,-664.08 352.27,-1326.78 529.25,-1989.96 125.15,-468.93 250.04,-937.94 374.06,-1407.24 9.52,-36.12 11.1,-74.24 17.17,-117.15z"/>
  <path class="fil0 str1" d="M15317.05 38909.53c-1237.4,-12.21 -2362.64,-850.81 -2817.27,-2032.95 -206.58,-537.04 -297.68,-1095.49 -289.57,-1670.55 2.04,-144.85 55.98,-208.48 182.13,-208.08 144.48,0.5 137.67,104.24 144.92,205.98 48.5,678.8 164.14,1339.41 476.75,1956.48 271.62,536.34 700.08,880.09 1242.5,1110.8 615.24,261.81 1263.17,279.32 1909.13,242.11 1105.15,-63.53 2187.43,-182.23 3288.83,-292.17 817.15,-81.54 1651.75,-179.35 2464.99,-297.6 799.07,-116.25 1598.02,-234 2394.97,-363.86 671.11,-109.35 1339,-237.6 2008.51,-356.67 761.35,-135.35 1523.58,-265.6 2284.02,-405.67 1019.83,-187.99 2038.9,-379.97 3057.27,-576.26 965.91,-186.28 1930.67,-379.76 2895.89,-570.95 940.18,-186.18 1882.68,-362.26 2819.16,-565.25 439.26,-95.15 869.48,-234.21 1298.78,-369.86 340.28,-107.64 678.71,-226 1007.17,-365.27 722.75,-306.44 1178.47,-872.89 1481.44,-1577.8 248.49,-578.27 380.61,-1187.33 417.01,-1811.01 34.07,-586.06 54.01,-1176.22 24.34,-1761.69 -51.93,-1024.07 -208.39,-2037.31 -468.01,-3030.35 -144.88,-554.14 -324.52,-1099.2 -488.17,-1648.43 -11.36,-37.53 -26.19,-75.15 -29.67,-113.56 -8.81,-96.45 17.85,-179.27 122.62,-206 106.17,-27 165.97,27.91 196.57,126.78 128.18,416.86 281.4,827.96 381.08,1251.53 196.56,834 380.15,1671.87 538.01,2513.84 145.1,773.63 146.5,1560.2 136.53,2345.75 -7.65,585.16 -47.75,1165.12 -198.89,1733.18 -224.61,844.65 -605.46,1593.78 -1315.7,2139.14 -390.35,299.63 -838.19,485.72 -1298.55,645.29 -1161.32,402.57 -2367.37,624.17 -3566.48,872.29 -862.53,178.49 -1724.14,360.75 -2588.06,532.63 -1219.04,242.62 -2438.47,484.42 -3660.32,712.72 -1015.05,189.59 -2032.98,364.37 -3051.35,536.14 -974.93,164.58 -1950.67,326.15 -2928.59,471.91 -885.71,132.06 -1765.18,295.15 -2654.78,397 -1011.14,115.74 -2027.36,233.53 -3041.91,312.96 -776.47,60.68 -1579.47,125.24 -2375.3,117.45z"/>
  <path class="fil0 str0" d="M27601.2 27963.05c0,-1368.81 -0.09,-2737.52 0.12,-4106.33 0.09,-218.52 16.99,-237.02 233.49,-237.11 848.67,-0.39 1697.46,0.19 2546.13,1.3 180.98,0.21 207.9,24.01 209.2,200.09 2.2,313.93 -4.2,627.97 0.3,941.81 1.9,135.37 -56.82,180.99 -186.19,179.78 -441.48,-4.1 -883.09,2.11 -1324.48,-4.89 -129.07,-2.11 -176.2,39.62 -171.49,168.26 7.12,195.99 5.12,392.49 -0.3,588.57 -3.08,113.54 39.73,158.27 154.98,156.56 318.84,-4.68 637.89,2.11 956.62,-3.78 132.66,-2.41 190.28,44.41 179.69,180.18 -7.62,97.42 -5.31,196.29 -0.51,294.11 6.7,135.07 -58.62,183.4 -186.97,181.8 -299.25,-3.71 -598.49,-1.9 -897.81,-2.02 -185.28,0 -202.89,16.71 -202.89,199.49 -0.51,1785.82 -0.61,3571.61 -0.79,5357.4 -0.12,229.99 -15.42,244.71 -239.52,243.99 -294.34,-0.78 -588.78,-3.89 -883.09,1.12 -137.28,2.29 -189.29,-47.03 -188.9,-189.89 4.11,-1383.51 2.41,-2766.94 2.41,-4150.44z"/>
  <path class="fil0 str2" d="M8509.2 22724.22c-104.26,3.38 -167.29,-85.44 -123.96,-201.2 82.06,-219.1 228.56,-375.96 460.51,-437.99 586.39,-156.88 1180.35,-289.43 1758.46,-472.32 1129.38,-357.04 2183.47,-871.87 3133.39,-1588.58 152.2,-114.81 315.38,-215.18 474.61,-320.51 99.44,-65.76 202.87,-64.48 305,-5.77 722.66,415.39 1520.57,626.84 2315.09,842.43 485.6,131.76 979.26,234.12 1470.06,346.43 247.91,56.72 479.61,15.93 677.99,-149.63 801.56,-668.97 1601.23,-1340.2 2401.78,-2010.45 567.35,-475.05 1132.81,-952.31 1703.55,-1423.26 181.68,-149.9 392.39,-249.09 635.9,-222.2 108.44,11.98 223.89,38.6 317.24,91.75 195.59,111.33 373.57,253.49 568.35,366.27 168.17,97.3 344.85,185.11 527.44,249.99 89.22,31.73 200.69,5.84 301.43,-2.39 42.42,-3.45 87.14,-22.02 123.65,-45.06 368.77,-232.89 669.51,-114.23 985.85,137.81 1145.21,912.5 2404.37,1637.93 3748.98,2216.22 103.52,44.53 210.89,84.56 304.93,144.71 53.11,33.96 82.52,104.8 122.65,159.04 -62.84,9.71 -132.36,42.03 -187.18,25.5 -347.26,-104.59 -695.61,-207.9 -1035.27,-334.05 -1138.21,-422.8 -2190.89,-1003.21 -3156.5,-1740.75 -93.35,-71.26 -188.69,-147.24 -295.24,-191.63 -104.85,-43.65 -238.71,-94.51 -336.65,-65.02 -513.72,154.63 -936.91,-38.76 -1360,-293.99 -602.26,-363.37 -794.75,-333.03 -1342.49,107.2 -1039.17,835.41 -2083.43,1664.7 -3131.31,2489.26 -242.11,190.57 -511.32,346.41 -761.04,527.84 -322.35,234.14 -685.21,260.17 -1054.86,198.72 -671.02,-111.54 -1347.27,-209.5 -2005.05,-377.14 -605.26,-154.22 -1190.9,-387.41 -1781.09,-597.42 -154.03,-54.8 -275.59,-59.22 -406.74,49.35 -764.09,632.47 -1624.2,1109.52 -2511.49,1542.5 -764.37,372.96 -1567.12,643.38 -2377.45,892.89 -148.89,45.83 -307.35,60.62 -470.54,91.45z"/>
  <path class="fil0 str0" d="M32050.64 27974.85c0,1358 0.23,2715.91 0,4073.92 0,234.09 -19.01,253.1 -248.95,253.31 -98.06,0 -196.11,-0.81 -294.16,0.3 -104.54,1.21 -152.06,-53.52 -155.07,-153.57 -1.16,-34.21 -0.7,-68.63 -0.7,-102.94 -0.23,-2715.92 -0.23,-5431.83 -0.46,-8147.84 0,-44.02 -0.7,-88.34 2.55,-132.27 6.72,-92.44 54.7,-143.64 150.67,-143.64 112.89,0.09 225.54,-1.12 338.2,0.09 173.15,1.81 207.22,35 207.69,205.19 0.93,377.46 0.23,754.93 0.23,1132.51 0,1004.94 0,2009.89 0,3014.94z"/>
 </g>
</svg>
